<svg width="20" height="20" viewBox="0 0 20 20" fill="none" xmlns="http://www.w3.org/2000/svg">
<path d="M15.5142 11.3866L14.9389 11.3933C14.8685 10.7543 14.6253 10.1406 14.2291 9.62299L14.4129 9.46916C14.5225 9.37755 14.537 9.21452 14.4453 9.10502C14.3537 8.99552 14.1906 8.98101 14.0812 9.07265L13.8856 9.2363C13.7731 9.12687 13.6523 9.02381 13.5234 8.92817C13.4088 8.84303 13.2469 8.86702 13.1618 8.98163C13.0767 9.09626 13.1006 9.25815 13.2153 9.34329C14.3421 10.1799 14.7412 11.6641 14.2119 12.9454C13.8438 13.8368 13.0969 14.4872 12.162 14.7285C11.2497 14.9638 10.2734 14.7771 9.49823 14.1578C9.27951 13.9831 9.0645 13.8012 8.85925 13.6173C8.75282 13.522 8.58948 13.5311 8.49421 13.6373C8.39894 13.7437 8.40791 13.9071 8.51424 14.0024C8.62112 14.0981 8.73055 14.1933 8.84171 14.2873L8.48566 14.728C8.39595 14.839 8.41321 15.0018 8.52427 15.0915C8.63601 15.1818 8.79862 15.1632 8.88782 15.0529L9.24249 14.614C9.76735 15.0139 10.3756 15.2546 11.009 15.3235L11.0007 15.8999C10.9986 16.0427 11.1127 16.1601 11.2554 16.1621C11.2567 16.1621 11.258 16.1622 11.2592 16.1622C11.4003 16.1622 11.5156 16.0489 11.5176 15.9074L11.5258 15.3416C11.7806 15.3319 12.037 15.2946 12.2912 15.229C12.7774 15.1036 13.2202 14.8835 13.6 14.586L13.878 14.9407C13.9661 15.0531 14.1286 15.0728 14.2409 14.9847C14.3533 14.8966 14.373 14.7342 14.2849 14.6218L13.9833 14.237C14.279 13.9247 14.5191 13.5559 14.6898 13.1427C14.8555 12.7415 14.9432 12.3244 14.9581 11.91L15.5202 11.9035C15.663 11.9018 15.7774 11.7848 15.7757 11.642C15.7741 11.5003 15.6587 11.3865 15.5173 11.3865C15.5163 11.3866 15.5152 11.3866 15.5142 11.3866Z" fill="#074574" stroke="#074574" stroke-width="0.4"/>
<path d="M11.8255 13.7491C12.2189 13.7491 12.6122 13.5994 12.9118 13.2999C13.5107 12.701 13.5107 11.7264 12.9118 11.1274C12.3128 10.5285 11.3382 10.5285 10.7392 11.1274C10.1403 11.7264 10.1403 12.701 10.7392 13.2999C11.0387 13.5994 11.4321 13.7491 11.8255 13.7491ZM11.1048 11.493C11.3035 11.2943 11.5645 11.195 11.8255 11.195C12.0864 11.195 12.3475 11.2943 12.5461 11.493C12.9435 11.8904 12.9435 12.537 12.5461 12.9343C12.1488 13.3317 11.5022 13.3317 11.1048 12.9343C10.7074 12.537 10.7074 11.8904 11.1048 11.493Z" fill="#074574" stroke="#074574" stroke-width="0.4"/>
<path d="M6.73013 6.96136C6.27355 7.41798 6.27355 8.16091 6.73013 8.6175C7.18675 9.07411 7.92968 9.07411 8.38634 8.6175C8.84292 8.16088 8.84292 7.41794 8.38634 6.96136C7.92968 6.50471 7.18675 6.50478 6.73013 6.96136ZM8.02071 8.25194C7.76576 8.50696 7.35074 8.50699 7.09572 8.25194C6.8407 7.99692 6.8407 7.58197 7.09572 7.32695C7.35071 7.07193 7.76569 7.07193 8.02071 7.32695C8.27573 7.58194 8.27573 7.99692 8.02071 8.25194Z" fill="#074574" stroke="#074574" stroke-width="0.4"/>
<path d="M9.59724 5.98676C9.17857 5.52194 8.62837 5.22783 8.04343 5.12191L8.05904 4.80285C8.06601 4.66026 7.95609 4.53901 7.81347 4.53201C7.67122 4.52553 7.54966 4.63496 7.54266 4.77759L7.52798 5.07766C6.87459 5.08283 6.24973 5.31937 5.7592 5.73573L5.51245 5.49298C5.41067 5.39289 5.24702 5.39417 5.14689 5.49595C5.0468 5.59773 5.04811 5.76138 5.14989 5.8615L5.39795 6.10553C5.00413 6.59203 4.77258 7.21595 4.78303 7.88292L4.40375 7.91063C4.26137 7.92104 4.15438 8.04491 4.16476 8.18726C4.17472 8.32323 4.28811 8.42694 4.42233 8.42694C4.44032 8.42694 4.41323 8.42808 4.83993 8.39713C4.86106 8.49877 4.88805 8.59949 4.92089 8.69882C5.09671 9.23023 5.31702 9.75406 5.57935 10.2653L5.06831 10.5388C4.94244 10.6062 4.89501 10.7628 4.96239 10.8887C5.02974 11.0145 5.18636 11.062 5.31227 10.9946L5.82562 10.7198C5.93436 10.9103 6.049 11.0988 6.16943 11.285C6.24701 11.4049 6.40711 11.4391 6.52688 11.3616C6.64676 11.284 6.68105 11.124 6.6035 11.0041C6.09381 10.2163 5.69285 9.38602 5.41174 8.53638C4.90676 7.01011 6.14844 5.46251 7.74743 5.60311C7.74805 5.60317 7.74867 5.60321 7.74932 5.60328C8.29862 5.65205 8.82538 5.90217 9.2131 6.33267C9.51627 6.66927 9.84692 6.99526 10.1936 7.30067C10.3007 7.39507 10.4641 7.3847 10.5585 7.27761C10.6528 7.17049 10.6425 7.00711 10.5354 6.91278C10.3531 6.7522 10.1763 6.58648 10.0065 6.41708L10.3703 6.07647C10.4745 5.9789 10.4799 5.81532 10.3823 5.71109C10.2847 5.60686 10.1211 5.60145 10.0169 5.69906L9.64894 6.04359C9.6316 6.02474 9.61437 6.00575 9.59724 5.98676Z" fill="#074574" stroke="#074574" stroke-width="0.4"/>
<path d="M16.239 3.76088C14.5724 2.09433 12.3566 1.17651 9.9998 1.17651C5.12332 1.17651 1.17627 5.12287 1.17627 10C1.17627 12.3569 2.09409 14.5727 3.7606 16.2392C5.42718 17.9058 7.64295 18.8236 9.9998 18.8236C14.8763 18.8236 18.8233 14.8772 18.8233 10C18.8233 7.64323 17.9055 5.42746 16.239 3.76088ZM9.9998 18.3066C7.78106 18.3066 5.69509 17.4426 4.12622 15.8737C2.55729 14.3048 1.69327 12.2188 1.69327 10C1.69327 5.40929 5.40843 1.69352 9.9998 1.69352C12.2185 1.69352 14.3045 2.55753 15.8734 4.12643C17.4423 5.69537 18.3063 7.78134 18.3063 10C18.3063 14.5908 14.5912 18.3066 9.9998 18.3066Z" fill="#074574" stroke="#074574" stroke-width="0.4"/>
<path d="M14.9878 4.16039L14.8681 4.06209C13.5027 2.94015 11.7739 2.32227 10.0001 2.32227C5.83896 2.32227 2.51631 5.60386 2.33047 9.64517C2.24296 11.5477 2.85795 13.4026 4.06212 14.8681L4.16046 14.9878C4.25751 15.1059 4.43512 15.1144 4.54304 15.0065L15.0065 4.54293C15.1146 4.43488 15.1057 4.25727 14.9878 4.16039ZM4.37984 14.4385C3.31098 13.0884 2.76727 11.3998 2.84692 9.66896C3.02036 5.89828 6.12093 2.83927 10.0001 2.83927C11.6109 2.83927 13.1817 3.38543 14.4385 4.3798L4.37984 14.4385Z" fill="#074574" stroke="#074574" stroke-width="0.4"/>
<path d="M15.938 5.13202L15.8397 5.01231C15.7432 4.89495 15.5657 4.8852 15.4571 4.99367L4.99365 15.4572C4.88542 15.5655 4.89469 15.7431 5.01236 15.8397L5.13203 15.938C6.49744 17.06 8.22626 17.6779 10.0001 17.6779C14.1602 17.6779 17.4838 14.3971 17.6697 10.355C17.7573 8.45252 17.1423 6.59765 15.938 5.13202ZM17.1533 10.3312C16.9798 14.1018 13.8793 17.1609 10.0001 17.1609C8.38933 17.1609 6.81846 16.6147 5.56166 15.6204L15.6204 5.56165C16.6893 6.91189 17.2329 8.60028 17.1533 10.3312Z" fill="#074574" stroke="#074574" stroke-width="0.4"/>
</svg>
