<svg width="18" height="18" viewBox="0 0 18 18" fill="none" xmlns="http://www.w3.org/2000/svg">
<path d="M16.5556 5.44451H1.44445M4 17.0001H14.0001C15.6569 17.0001 17.0001 15.657 17.0001 14.0001V5.77783C17.0001 4.12098 15.6569 2.77783 14.0001 2.77783H4C2.34315 2.77783 1 4.12098 1 5.77783V14.0001C1 15.657 2.34315 17.0001 4 17.0001Z" stroke="#074574" stroke-width="1.4" stroke-linecap="round"/>
<path d="M5 2.77772V0.77771" stroke="#074574" stroke-width="1.4" stroke-linecap="round" stroke-linejoin="round"/>
<path d="M13 2.77772V0.77771" stroke="#074574" stroke-width="1.4" stroke-linecap="round" stroke-linejoin="round"/>
<path d="M5.66635 13.8889H4.33301M5.66635 11.2222H4.33301M5.66635 8.55554H4.33301M9.66637 13.8889H8.33303M9.66637 11.2222H8.33303M9.66637 8.55554H8.33303M13.6664 13.8889H12.3331M13.6664 11.2222H12.3331M13.6664 8.55554H12.3331" stroke="#074574" stroke-width="1.4" stroke-linecap="round"/>
</svg>
