<svg width="49" height="50" viewBox="0 0 49 50" fill="none" xmlns="http://www.w3.org/2000/svg">
<path fill-rule="evenodd" clip-rule="evenodd" d="M24.5 45.9375C29.3734 45.9375 34.0471 44.0016 37.4931 40.5556C40.9391 37.1096 42.875 32.4359 42.875 27.5625C42.875 22.6891 40.9391 18.0154 37.4931 14.5694C34.0471 11.1234 29.3734 9.1875 24.5 9.1875C19.6266 9.1875 14.9529 11.1234 11.5069 14.5694C8.06093 18.0154 6.125 22.6891 6.125 27.5625C6.125 32.4359 8.06093 37.1096 11.5069 40.5556C14.9529 44.0016 19.6266 45.9375 24.5 45.9375ZM24.5 49C30.1856 49 35.6383 46.7414 39.6586 42.7211C43.6789 38.7008 45.9375 33.2481 45.9375 27.5625C45.9375 21.8769 43.6789 16.4242 39.6586 12.4039C35.6383 8.38359 30.1856 6.125 24.5 6.125C18.8144 6.125 13.3617 8.38359 9.3414 12.4039C5.32109 16.4242 3.0625 21.8769 3.0625 27.5625C3.0625 33.2481 5.32109 38.7008 9.3414 42.7211C13.3617 46.7414 18.8144 49 24.5 49Z" fill="#FDA458"/>
<path fill-rule="evenodd" clip-rule="evenodd" d="M24.5002 13.7812C24.9063 13.7812 25.2958 13.9426 25.5829 14.2297C25.8701 14.5169 26.0314 14.9064 26.0314 15.3125V27.5625C26.0314 27.8007 25.9758 28.0356 25.8691 28.2485L21.2754 37.436C21.1862 37.6174 21.0621 37.7793 20.9101 37.9124C20.7581 38.0456 20.5812 38.1474 20.3897 38.2118C20.1981 38.2763 19.9958 38.3022 19.7942 38.2881C19.5926 38.274 19.3958 38.2201 19.2151 38.1296C19.0344 38.039 18.8735 37.9136 18.7415 37.7606C18.6095 37.6076 18.5091 37.4299 18.4462 37.2379C18.3832 37.0459 18.3588 36.8433 18.3745 36.6418C18.3902 36.4403 18.4456 36.244 18.5375 36.064L22.9689 27.2011V15.3125C22.9689 14.9064 23.1303 14.5169 23.4174 14.2297C23.7046 13.9426 24.0941 13.7812 24.5002 13.7812Z" fill="#FDA458"/>
<path d="M2.63365 16.4977C1.84126 15.8084 1.19915 14.9635 0.747241 14.0155C0.295336 13.0674 0.0433039 12.0366 0.00681903 10.987C-0.0296658 9.9374 0.150176 8.89153 0.535162 7.91442C0.920147 6.9373 1.50204 6.04984 2.24466 5.30722C2.98728 4.5646 3.87474 3.98271 4.85185 3.59772C5.82897 3.21274 6.87484 3.0329 7.92443 3.06938C8.97401 3.10586 10.0049 3.3579 10.9529 3.8098C11.9009 4.26171 12.7458 4.90382 13.4351 5.69621C8.77994 8.05969 4.99713 11.8425 2.63365 16.4977ZM35.5647 5.69621C36.254 4.90382 37.0989 4.26171 38.0469 3.8098C38.9949 3.3579 40.0258 3.10586 41.0754 3.06938C42.125 3.0329 43.1708 3.21274 44.1479 3.59772C45.1251 3.98271 46.0125 4.5646 46.7551 5.30722C47.4978 6.04984 48.0797 6.9373 48.4646 7.91442C48.8496 8.89153 49.0295 9.9374 48.993 10.987C48.9565 12.0366 48.7045 13.0674 48.2526 14.0155C47.8007 14.9635 47.1585 15.8084 46.3662 16.4977C44.0027 11.8425 40.2199 8.05969 35.5647 5.69621Z" fill="#FDA458"/>
<path fill-rule="evenodd" clip-rule="evenodd" d="M35.6656 43.3221C35.8078 43.1795 35.9768 43.0664 36.1629 42.9892C36.3489 42.912 36.5483 42.8723 36.7497 42.8723C36.9511 42.8723 37.1506 42.912 37.3366 42.9892C37.5226 43.0664 37.6916 43.1795 37.8339 43.3221L40.8964 46.3846C41.1839 46.6722 41.3454 47.0621 41.3454 47.4688C41.3454 47.8754 41.1839 48.2653 40.8964 48.5529C40.6088 48.8404 40.2189 49.0019 39.8122 49.0019C39.4056 49.0019 39.0156 48.8404 38.7281 48.5529L35.6656 45.4904C35.523 45.3481 35.4099 45.1792 35.3327 44.9931C35.2555 44.8071 35.2157 44.6077 35.2157 44.4062C35.2157 44.2048 35.2555 44.0054 35.3327 43.8194C35.4099 43.6333 35.523 43.4644 35.6656 43.3221ZM13.3339 43.3221C13.1916 43.1795 13.0226 43.0664 12.8366 42.9892C12.6506 42.912 12.4511 42.8723 12.2497 42.8723C12.0483 42.8723 11.8489 42.912 11.6629 42.9892C11.4768 43.0664 11.3079 43.1795 11.1656 43.3221L8.10311 46.3846C7.81558 46.6722 7.65405 47.0621 7.65405 47.4688C7.65405 47.8754 7.81558 48.2653 8.10311 48.5529C8.39064 48.8404 8.78061 49.0019 9.18724 49.0019C9.59386 49.0019 9.98383 48.8404 10.2714 48.5529L13.3339 45.4904C13.4765 45.3481 13.5896 45.1792 13.6668 44.9931C13.744 44.8071 13.7837 44.6077 13.7837 44.4062C13.7837 44.2048 13.744 44.0054 13.6668 43.8194C13.5896 43.6333 13.4765 43.4644 13.3339 43.3221ZM16.8435 1.53125C16.8435 1.12514 17.0048 0.735658 17.292 0.448493C17.5791 0.161328 17.9686 0 18.3747 0L30.6247 0C31.0308 0 31.4203 0.161328 31.7075 0.448493C31.9947 0.735658 32.156 1.12514 32.156 1.53125C32.156 1.93736 31.9947 2.32684 31.7075 2.61401C31.4203 2.90117 31.0308 3.0625 30.6247 3.0625H18.3747C17.9686 3.0625 17.5791 2.90117 17.292 2.61401C17.0048 2.32684 16.8435 1.93736 16.8435 1.53125Z" fill="#FDA458"/>
<path d="M21.4375 3.0625H27.5625V9.1875H21.4375V3.0625Z" fill="#FDA458"/>
</svg>
