<svg width="22" height="22" viewBox="0 0 22 22" fill="none" xmlns="http://www.w3.org/2000/svg">
<path fill-rule="evenodd" clip-rule="evenodd" d="M7.9001 0.599976H7.86115H7.86113C6.77406 0.599968 5.90339 0.599961 5.19962 0.657462C4.47695 0.716506 3.85139 0.840637 3.27554 1.13404C2.35355 1.60382 1.60395 2.35343 1.13417 3.27542C0.840759 3.85127 0.716628 4.47683 0.657584 5.19949C0.600083 5.90326 0.60009 6.77394 0.600098 7.86101V7.86103V7.89998V14.1V14.1389V14.1389C0.60009 15.226 0.600083 16.0967 0.657584 16.8005C0.716628 17.5231 0.840759 18.1487 1.13417 18.7245C1.60395 19.6465 2.35355 20.3961 3.27554 20.8659C3.85139 21.1593 4.47695 21.2834 5.19962 21.3425C5.90337 21.4 6.77402 21.4 7.86106 21.4H7.86114H7.9001H14.1001H14.1391H14.1391C15.2262 21.4 16.0968 21.4 16.8006 21.3425C17.5232 21.2834 18.1488 21.1593 18.7247 20.8659C19.6466 20.3961 20.3962 19.6465 20.866 18.7245C21.1594 18.1487 21.2836 17.5231 21.3426 16.8005C21.4001 16.0967 21.4001 15.2261 21.4001 14.139V14.1389V14.1V7.89998V7.86102V7.86094C21.4001 6.7739 21.4001 5.90325 21.3426 5.1995C21.2836 4.47683 21.1594 3.85127 20.866 3.27542C20.3962 2.35343 19.6466 1.60382 18.7247 1.13404C18.1488 0.840637 17.5232 0.716506 16.8006 0.657462C16.0968 0.599961 15.2261 0.599968 14.1391 0.599976H14.139H14.1001H7.9001ZM4.09273 2.73786C4.37253 2.59529 4.73484 2.50143 5.34619 2.45148C5.96805 2.40068 6.76514 2.39998 7.9001 2.39998H14.1001C15.2351 2.39998 16.0321 2.40068 16.654 2.45148C17.2654 2.50143 17.6277 2.59529 17.9075 2.73786C18.4908 3.03506 18.965 3.5093 19.2622 4.09261C19.4048 4.37241 19.4986 4.73472 19.5486 5.34607C19.5994 5.96793 19.6001 6.76502 19.6001 7.89998V13.4263L17.6149 10.7097C16.8159 9.61639 15.1843 9.61639 14.3853 10.7097L11.7293 14.3442C10.9664 15.3882 9.42814 15.4447 8.59067 14.4595L8.02398 13.7928C7.22532 12.8532 5.77489 12.8532 4.97623 13.7928L2.46027 16.7527C2.45725 16.7205 2.45436 16.6876 2.45161 16.6539C2.4008 16.032 2.4001 15.2349 2.4001 14.1V7.89998C2.4001 6.76502 2.4008 5.96793 2.45161 5.34607C2.50156 4.73472 2.59541 4.37241 2.73798 4.09261C3.03519 3.5093 3.50942 3.03506 4.09273 2.73786ZM9.50011 6.99997C9.50011 8.38068 8.38082 9.49997 7.00011 9.49997C5.61939 9.49997 4.50011 8.38068 4.50011 6.99997C4.50011 5.61926 5.61939 4.49997 7.00011 4.49997C8.38082 4.49997 9.50011 5.61926 9.50011 6.99997Z" fill="#15C8BC"/>
</svg>
