<svg width="18" height="20" viewBox="0 0 18 20" fill="none" xmlns="http://www.w3.org/2000/svg">
<path d="M14.8568 2.62049H13.0474V1.81104C13.0474 1.54915 12.7617 1.43013 12.4999 1.43013H11.0952C10.7619 0.477818 9.92865 0.00166358 8.97634 0.00166358C8.03451 -0.0337438 7.17785 0.543757 6.85746 1.43013H5.47661C5.21472 1.43013 4.95284 1.54915 4.95284 1.81104V2.62049H3.14341C2.07117 2.63193 1.19395 3.47779 1.14355 4.5489V18.1907C1.14355 19.2382 2.09586 20.0001 3.14341 20.0001H14.8568C15.9043 20.0001 16.8567 19.2382 16.8567 18.1907V4.54894C16.8063 3.47779 15.929 2.63193 14.8568 2.62049ZM5.9051 2.38244H7.21454C7.44311 2.35455 7.62671 2.18066 7.66691 1.9539C7.8079 1.3399 8.34657 0.899153 8.97634 0.882566C9.60028 0.901477 10.1308 1.34359 10.2619 1.9539C10.3046 2.18849 10.5004 2.36462 10.7381 2.38244H12.0952V4.28706H5.9051V2.38244ZM15.9044 18.1907C15.9044 18.7145 15.3806 19.0478 14.8568 19.0478H3.14341C2.61964 19.0478 2.09586 18.7145 2.09586 18.1907V4.54894C2.14444 4.00375 2.59612 3.58283 3.14341 3.57285H4.95279V4.78704C4.97795 5.05381 5.20898 5.25335 5.47657 5.23941H12.4998C12.7723 5.25431 13.0106 5.0575 13.0474 4.78704V3.5728H14.8568C15.404 3.58283 15.8557 4.00371 15.9043 4.5489V18.1907H15.9044Z" fill="#074574" stroke="#074574" stroke-width="0.3"/>
<path d="M7.16691 10.6436C6.98832 10.4553 6.69184 10.4447 6.50027 10.6198L4.97656 12.072L4.33376 11.4054C4.15517 11.2171 3.8587 11.2066 3.66712 11.3816C3.4827 11.5748 3.4827 11.8788 3.66712 12.072L4.64322 13.0719C4.72771 13.1665 4.84974 13.2188 4.97652 13.2148C5.10211 13.213 5.22191 13.1617 5.30981 13.0719L7.16681 11.3102C7.35091 11.1413 7.36322 10.8551 7.19429 10.6711C7.18563 10.6615 7.17647 10.6523 7.16691 10.6436Z" fill="#074574" stroke="#074574" stroke-width="0.3"/>
<path d="M13.9993 11.6674H8.52352C8.26054 11.6674 8.04736 11.8805 8.04736 12.1435C8.04736 12.4065 8.26054 12.6197 8.52352 12.6197H13.9993C14.2623 12.6197 14.4754 12.4065 14.4754 12.1435C14.4754 11.8805 14.2623 11.6674 13.9993 11.6674Z" fill="#074574" stroke="#074574" stroke-width="0.3"/>
<path d="M7.16691 6.83436C6.98832 6.64611 6.69184 6.63549 6.50027 6.81057L4.97656 8.26282L4.33376 7.59619C4.15517 7.40794 3.8587 7.39732 3.66712 7.5724C3.4827 7.76562 3.4827 8.06961 3.66712 8.26282L4.64322 9.26275C4.72771 9.35735 4.84974 9.40967 4.97652 9.40561C5.10211 9.40384 5.22191 9.35248 5.30981 9.26275L7.16681 7.50099C7.35091 7.33211 7.36322 7.04594 7.19429 6.86188C7.18563 6.85227 7.17647 6.84311 7.16691 6.83436Z" fill="#074574" stroke="#074574" stroke-width="0.3"/>
<path d="M13.9993 7.85815H8.52352C8.26054 7.85815 8.04736 8.07133 8.04736 8.33431C8.04736 8.59729 8.26054 8.81046 8.52352 8.81046H13.9993C14.2623 8.81046 14.4754 8.59729 14.4754 8.33431C14.4754 8.07133 14.2623 7.85815 13.9993 7.85815Z" fill="#074574" stroke="#074574" stroke-width="0.3"/>
<path d="M7.16691 14.4527C6.98832 14.2645 6.69184 14.2539 6.50027 14.429L4.97656 15.8812L4.33376 15.2146C4.15517 15.0263 3.8587 15.0158 3.66712 15.1908C3.4827 15.384 3.4827 15.688 3.66712 15.8812L4.64322 16.8811C4.72771 16.9757 4.84974 17.0281 4.97652 17.024C5.10211 17.0222 5.22191 16.9709 5.30981 16.8811L7.16681 15.1194C7.35091 14.9505 7.36322 14.6643 7.19429 14.4803C7.18563 14.4707 7.17647 14.4615 7.16691 14.4527Z" fill="#074574" stroke="#074574" stroke-width="0.3"/>
<path d="M13.9993 15.4766H8.52352C8.26054 15.4766 8.04736 15.6897 8.04736 15.9527C8.04736 16.2157 8.26054 16.4289 8.52352 16.4289H13.9993C14.2623 16.4289 14.4754 16.2157 14.4754 15.9527C14.4754 15.6897 14.2623 15.4766 13.9993 15.4766Z" fill="#074574" stroke="#074574" stroke-width="0.3"/>
</svg>
