<svg width="10" height="18" viewBox="0 0 10 18" fill="none" xmlns="http://www.w3.org/2000/svg">
<path fill-rule="evenodd" clip-rule="evenodd" d="M2.46377 1.42105C1.82344 1.42105 1.30435 1.98659 1.30435 2.68421V15.3158C1.30435 16.0134 1.82344 16.5789 2.46377 16.5789H7.53623C8.17656 16.5789 8.69565 16.0134 8.69565 15.3158V2.68421C8.69565 1.98659 8.17656 1.42105 7.53623 1.42105H7.4343L7.23596 1.96125C7.13692 2.23101 6.89711 2.4079 6.63043 2.4079H3.36957C3.10289 2.4079 2.86308 2.23101 2.76404 1.96125L2.5657 1.42105H2.46377ZM0 2.68421C0 1.20176 1.10307 0 2.46377 0H7.53623C8.89693 0 10 1.20176 10 2.68421V15.3158C10 16.7982 8.89693 18 7.53623 18H2.46377C1.10307 18 0 16.7982 0 15.3158V2.68421Z" fill="#074574"/>
</svg>
