<svg width="20" height="18" viewBox="0 0 20 18" fill="none" xmlns="http://www.w3.org/2000/svg">
<path d="M16.8327 1.36493C16.2302 0.760786 15.351 0.545747 14.5376 0.803989L12.8889 1.32735C10.012 0.596372 7.76258 1.12645 7.09555 1.32243L5.46242 0.803989C4.64926 0.545786 3.76973 0.760786 3.16727 1.36493L0 4.54106C0 4.54106 0.677773 6.76332 2.52234 8.16563L1.95625 10.6169L1.95047 10.6451C1.7877 11.5499 2.01262 12.4892 2.56754 13.2222C3.04266 13.8498 3.72906 14.2853 4.49094 14.4534L4.84008 15.3059C5.22 16.2336 6.11324 16.833 7.11578 16.833C7.4318 16.833 7.73688 16.7725 8.01859 16.6613C8.62254 17.0773 9.34133 17.3036 10.0815 17.3036C10.8132 17.3036 11.5257 17.0817 12.1259 16.674C12.3986 16.7771 12.6924 16.833 12.9964 16.833C13.9989 16.833 14.8921 16.2336 15.272 15.3059L15.6238 14.447C16.3739 14.2742 17.0487 13.8417 17.5177 13.2222C18.0727 12.4893 18.2976 11.5499 18.1348 10.645L17.665 8.03407C19.3331 6.71172 20 4.54106 20 4.54106L16.8327 1.36493ZM5.92867 14.8601L5.48945 13.7877L7.9325 10.6324L9.33551 11.8015L8.33145 14.7833C8.15555 15.3057 7.66699 15.6567 7.11574 15.6567C6.59281 15.6567 6.12684 15.344 5.92867 14.8601ZM9.63332 9.57875H10.4788C10.7818 9.57875 11.0785 9.65751 11.3408 9.80008L10.056 10.8706L8.77125 9.80008C9.03356 9.65751 9.3302 9.57875 9.63332 9.57875ZM9.04547 15.8984C9.21719 15.6809 9.35422 15.4322 9.44629 15.1588L10.056 13.348L10.6657 15.1588C10.7602 15.4392 10.9017 15.6939 11.0796 15.9152C10.7676 16.0536 10.4277 16.1273 10.0814 16.1273C9.7207 16.1273 9.36754 16.0477 9.04547 15.8984ZM14.1834 14.8601C13.9852 15.344 13.5193 15.6567 12.9963 15.6567C12.4451 15.6567 11.9566 15.3057 11.7807 14.7833L10.7766 11.8015L12.1796 10.6324L14.6226 13.7877L14.1834 14.8601ZM16.9493 7.1034L15.4528 5.46239C14.9854 4.94985 14.728 4.28555 14.728 3.59188H13.5517C13.5517 4.57946 13.9182 5.52524 14.5836 6.255L16.5346 8.39454L16.977 10.8534C17.0833 11.4443 16.9422 12.0334 16.5798 12.5122C16.3382 12.8313 16.0225 13.0684 15.6621 13.2086L12.8356 9.55829C12.5404 9.17704 12.1562 8.8768 11.7249 8.67793V6.74207C11.7249 6.61934 11.8041 6.56188 11.8514 6.5386C11.8987 6.51528 11.9925 6.48735 12.0899 6.56204L13.1164 7.34938L13.8324 6.41594L12.8058 5.6286C12.3788 5.30106 11.8137 5.24551 11.331 5.4836C10.8484 5.72168 10.5486 6.20391 10.5486 6.74207V8.4034C10.5253 8.40286 10.5021 8.40239 10.4788 8.40239H9.63336C9.62703 8.40239 9.6207 8.40262 9.61434 8.40266V6.74207C9.61434 6.20391 9.31449 5.72168 8.83187 5.4836C8.34922 5.24555 7.7841 5.30106 7.35707 5.6286L6.33051 6.41594L7.04645 7.34938L8.07301 6.56204C8.17039 6.48727 8.26422 6.51528 8.31148 6.5386C8.35875 6.56192 8.43801 6.61934 8.43801 6.74207V8.65528C7.98613 8.85364 7.5832 9.16215 7.27652 9.55829L4.44375 13.2168C4.07469 13.0777 3.75164 12.8373 3.50551 12.5122C3.14578 12.037 3.00414 11.4532 3.10598 10.8667L3.74859 8.08415L5.41656 6.255C6.08203 5.52524 6.44852 4.5795 6.44852 3.59188H5.27215C5.27215 4.28555 5.01473 4.94981 4.54734 5.46239L3.05094 7.1034C1.78742 6.01504 1.57445 5.05145 1.42863 4.77454L4.00039 2.19555C4.29078 1.90438 4.71469 1.80079 5.1066 1.9252L7.1068 2.55918C7.1068 2.55918 9.66703 1.67723 12.752 2.50743L12.9185 2.55223L14.8937 1.9252C15.2857 1.80071 15.7095 1.90438 15.9999 2.19555L18.5716 4.77454C18.4257 5.05145 18.1204 5.98922 16.9493 7.1034Z" fill="#074574"/>
<path d="M5.66455 8.01672H6.84092V9.19315H5.66455V8.01672Z" fill="#074574"/>
<path d="M13.3218 8.01672H14.4981V9.19315H13.3218V8.01672Z" fill="#074574"/>
</svg>
