<svg width="15" height="16" viewBox="0 0 15 16" fill="none" xmlns="http://www.w3.org/2000/svg">
<path d="M14.1956 4.9643C13.7062 5.48635 13.4615 5.74737 13.1672 5.80527C13.0518 5.82798 12.9334 5.82798 12.818 5.80527C12.5237 5.74737 12.279 5.48635 11.7896 4.9643L10.346 3.42444C9.85655 2.9024 9.61184 2.64138 9.55756 2.32742C9.53627 2.20433 9.53627 2.07811 9.55756 1.95501C9.61184 1.64106 9.85655 1.38004 10.346 0.857999C10.8354 0.335956 11.0801 0.0749354 11.3744 0.0170287C11.4898 -0.00567624 11.6081 -0.00567624 11.7236 0.0170287C12.0179 0.0749354 12.2626 0.335956 12.752 0.857998L14.1956 2.39786C14.685 2.91991 14.9297 3.18093 14.984 3.49488C15.0053 3.61798 15.0053 3.74419 14.984 3.86729C14.9297 4.18124 14.685 4.44226 14.1956 4.9643Z" fill="#074574"/>
<path d="M1.92483 16C1.01746 16 0.56377 16 0.281885 15.6993C0 15.3986 0 14.9147 0 13.9468V12.7441C0 12.3245 0 12.1147 0.0732595 11.9261C0.146519 11.7374 0.285603 11.5891 0.56377 11.2923L6.81947 4.61959C7.46108 3.93521 7.78188 3.59302 8.18053 3.59302C8.57918 3.59302 8.89998 3.93521 9.54159 4.61959L10.6691 5.8223C11.3107 6.50669 11.6315 6.84888 11.6315 7.2741C11.6315 7.69932 11.3107 8.04152 10.6691 8.7259L4.41343 15.3986C4.13526 15.6954 3.99618 15.8437 3.81932 15.9219C3.64245 16 3.44576 16 3.05237 16H1.92483Z" fill="#074574"/>
</svg>
