<svg width="206" height="154" viewBox="0 0 206 154" fill="none" xmlns="http://www.w3.org/2000/svg">
<path fill-rule="evenodd" clip-rule="evenodd" d="M175.108 138.755C175.108 138.755 174.645 116.693 183.709 103.35C192.765 90.0151 202.654 90.1097 205.006 93.351C207.358 96.5837 205.59 105.018 199.135 108.646C192.671 112.274 178.473 121.947 177.495 137.964L175.108 138.755Z" fill="white"/>
<path fill-rule="evenodd" clip-rule="evenodd" d="M175.108 138.755C175.108 138.755 168.799 117.39 175.108 93.9528C181.409 70.5157 188.654 66.4577 193.555 68.0482C198.448 69.6302 192.165 82.9393 186.894 93.9528C181.632 104.966 176.405 117.553 176.31 138.359L175.108 138.755Z" fill="white"/>
<path fill-rule="evenodd" clip-rule="evenodd" d="M175.108 138.755C175.108 138.755 174.482 128.197 166.507 124.449C158.542 120.7 144.507 125.446 144.009 115.146C143.511 104.846 163.443 107.313 169.64 117.338C175.838 127.355 176.31 138.359 176.31 138.359L175.108 138.755Z" fill="white"/>
<path fill-rule="evenodd" clip-rule="evenodd" d="M176.997 138.686C176.997 138.686 176.027 128.988 176.877 116.496C177.194 111.862 177.761 106.858 178.714 101.802C179.169 99.3951 179.709 96.9706 180.345 94.5804C180.765 92.9899 181.229 91.4079 181.744 89.8518C182.396 87.8829 183.117 85.957 183.941 84.0828C184.774 82.1741 185.692 80.3256 186.722 78.5545C185.581 80.2568 184.542 82.0537 183.606 83.928C182.688 85.7679 181.864 87.6766 181.117 89.6368C180.533 91.1844 180.001 92.7663 179.52 94.3569C178.808 96.7556 178.207 99.1801 177.709 101.613C176.662 106.694 176.035 111.741 175.666 116.41C174.679 129.014 175.615 138.824 175.615 138.824C175.649 139.202 175.993 139.486 176.37 139.443C176.757 139.408 177.031 139.073 176.997 138.686Z" fill="#FFF1E6"/>
<path fill-rule="evenodd" clip-rule="evenodd" d="M177.005 138.359C177.005 138.359 176.945 128.893 182.37 118.026C183.272 116.212 184.327 114.364 185.555 112.498C186.31 111.346 187.134 110.185 188.027 109.033C189.28 107.408 190.671 105.783 192.216 104.193C193.186 103.195 194.216 102.198 195.315 101.226C194.13 102.103 193.014 102.997 191.958 103.926C190.276 105.413 188.765 106.961 187.409 108.543C186.439 109.669 185.555 110.813 184.748 111.965C183.435 113.822 182.327 115.696 181.366 117.527C175.589 128.61 175.606 138.377 175.606 138.377C175.606 138.763 175.915 139.073 176.301 139.064C176.696 139.056 177.005 138.746 177.005 138.359Z" fill="#FFF1E6"/>
<path fill-rule="evenodd" clip-rule="evenodd" d="M176.997 138.291C177.031 138.669 176.756 139.013 176.379 139.047C176.001 139.082 175.658 138.807 175.623 138.428C175.623 138.428 174.851 130.432 169.477 123.744C168.507 122.54 167.391 121.371 166.104 120.296C165.297 119.625 164.439 118.989 163.494 118.387C162.19 117.553 160.748 116.805 159.142 116.186C158.164 115.799 157.125 115.455 156.018 115.163C157.159 115.326 158.232 115.55 159.254 115.834C160.954 116.315 162.49 116.951 163.881 117.708C164.894 118.258 165.829 118.877 166.696 119.539C168.087 120.605 169.288 121.792 170.327 123.03C176.113 129.891 176.997 138.291 176.997 138.291Z" fill="#FFF1E6"/>
<path fill-rule="evenodd" clip-rule="evenodd" d="M183.615 136.459C183.641 136.219 183.555 135.978 183.4 135.806C183.246 135.634 183.006 135.522 182.765 135.522C179.769 135.522 170.447 135.522 167.452 135.522C167.211 135.522 166.979 135.625 166.816 135.806C166.653 135.986 166.576 136.219 166.602 136.459C166.911 139.675 167.907 150.258 168.19 153.216C168.233 153.655 168.602 153.99 169.04 153.99H181.177C181.615 153.99 181.984 153.655 182.027 153.216C182.31 150.267 183.315 139.683 183.615 136.459Z" fill="white"/>
<path fill-rule="evenodd" clip-rule="evenodd" d="M145.409 57.162V29.616H109.993V57.162H145.409ZM139.694 51.6406V35.1374H115.708V51.6305H139.694V51.6406Z" fill="#FFCD50"/>
<path d="M93.5567 26.1758H58.1406V79.6135H93.5567V26.1758Z" fill="#FF3EB3"/>
<path fill-rule="evenodd" clip-rule="evenodd" d="M67.8789 26.1758H57.0767C55.3844 26.1758 53.8847 27.2821 53.3882 28.8959C50.5306 38.1219 41.4004 67.5963 41.4004 67.5963H57.553L67.8789 26.1758Z" fill="#FF3EB3"/>
<path fill-rule="evenodd" clip-rule="evenodd" d="M58.1406 38L50.0137 67.6064H57.9684L58.1406 38Z" fill="#F65570"/>
<path fill-rule="evenodd" clip-rule="evenodd" d="M62.0622 7.6426C62.0622 7.6426 61.8798 9.62177 62.2446 10.7585C62.6094 11.9054 64.3726 13.57 64.3726 13.57L65.2542 7.63245H62.0622V7.6426Z" fill="#392F39"/>
<path fill-rule="evenodd" clip-rule="evenodd" d="M63.3289 9.44924C63.3289 9.44924 64.6361 14.5443 65.3353 17.2949C65.5886 18.2794 66.5209 18.9391 67.5342 18.8376C68.2131 18.7666 68.8313 18.7057 68.8313 18.7057C68.8313 18.7057 68.1219 22.6234 67.4531 26.2671C67.1795 27.7693 67.5849 29.3222 68.5678 30.4995C69.5507 31.6769 70.9998 32.3569 72.53 32.3569H73.7764C75.3166 32.3569 76.7657 31.6667 77.7486 30.4792C78.7316 29.2917 79.1268 27.7287 78.843 26.2164C77.7588 20.5326 76.3097 12.961 76.3097 12.961C76.3097 12.961 76.6036 12.9204 76.9684 12.8595C77.3636 12.7986 77.7182 12.5855 77.9412 12.2505C78.1641 11.9257 78.2452 11.5096 78.154 11.1239C78.1337 11.0326 78.1134 10.9311 78.083 10.8397C77.9918 10.4337 77.7182 10.0887 77.3433 9.89582C76.9684 9.70298 76.5326 9.69283 76.1476 9.84507C75.6814 10.0379 75.2862 10.2003 75.2862 10.2003C75.2862 10.2003 72.1145 8.39368 71.8713 5.74463C71.8814 5.77508 66.1054 9.44924 63.3289 9.44924Z" fill="#FFC5BC"/>
<path fill-rule="evenodd" clip-rule="evenodd" d="M71.8815 5.77507C71.8815 5.77507 66.1054 9.45938 63.3289 9.45938C60.5524 9.45938 58.8094 6.88138 59.2046 5.09505C59.5998 3.30872 61.2212 1.98927 63.3289 2.47645C65.4366 2.96363 66.2878 3.72485 68.2942 2.47645C70.2905 1.2179 71.4863 -0.345142 73.7865 0.0709914C76.0868 0.487125 76.6441 2.24301 76.6441 3.98874C76.6036 3.97859 78.3465 4.15113 79.1876 5.77507C80.3935 8.10948 79.4916 13.1234 76.5631 14.0774C73.6244 15.0315 71.6383 8.41397 71.8815 5.77507Z" fill="#392F39"/>
<path fill-rule="evenodd" clip-rule="evenodd" d="M68.8212 18.7056L71.8511 18.3809L67.8687 24.227L68.8212 18.7056Z" fill="#FAAA9E"/>
<path fill-rule="evenodd" clip-rule="evenodd" d="M59.8632 79.6135C59.8632 79.6135 52.861 100.065 49.5474 109.748C48.4936 112.833 49.0813 116.254 51.1181 118.801C57.9277 127.347 73.0264 146.296 73.0264 146.296L77.7992 142.825L64.2306 113.432L80.4035 88.0478L59.8632 79.6135Z" fill="#14B6AB"/>
<path fill-rule="evenodd" clip-rule="evenodd" d="M73.0063 146.296L69.865 154H71.8511L80.3834 148.336L77.7791 142.825L73.0063 146.296Z" fill="#F65570"/>
<path fill-rule="evenodd" clip-rule="evenodd" d="M93.5568 79.6135L86.4432 149.788H77.4954L75.8437 91.1333C75.8437 91.1333 74.8608 91.1637 73.4218 91.2145C66.8757 91.4479 61.1605 86.8298 59.9951 80.3747C59.9039 79.8977 59.8533 79.6135 59.8533 79.6135H93.5568Z" fill="#15C8BC"/>
<path fill-rule="evenodd" clip-rule="evenodd" d="M77.4955 149.788L71.8613 154H86.4432V149.788H77.4955Z" fill="#FF3EB3"/>
<path fill-rule="evenodd" clip-rule="evenodd" d="M59.1438 73.4933L68.507 154H69.8649L65.923 73.4933H59.1438Z" fill="#FFCD50"/>
<path fill-rule="evenodd" clip-rule="evenodd" d="M44.7037 73.4933L31.3176 154H29.9597L37.9245 73.4933H44.7037Z" fill="#FFCD50"/>
<path fill-rule="evenodd" clip-rule="evenodd" d="M88.1963 73.4933L105.656 154H107.014L94.9755 73.4933H88.1963Z" fill="#FFCD50"/>
<path fill-rule="evenodd" clip-rule="evenodd" d="M23.3832 73.4933L1.90047 154H0.552734L16.6141 73.4933H23.3832Z" fill="#FFCD50"/>
<path fill-rule="evenodd" clip-rule="evenodd" d="M23.3832 73.4932L22.2584 77.7053H15.7629L16.604 73.4932H23.3832ZM44.7038 73.4932L44.0046 77.7053H37.499L37.9145 73.4932H44.7038ZM66.1359 77.6952H59.6404L59.154 73.4831H65.9332L66.1359 77.6952ZM95.6037 77.6952H89.1082L88.1962 73.4831H94.9754L95.6037 77.6952Z" fill="#F4C03F"/>
<path fill-rule="evenodd" clip-rule="evenodd" d="M93.5568 64.7239C92.736 65.3126 91.7531 65.6273 90.7296 65.6273C84.0821 65.6273 72.7024 65.6273 67.4938 65.6273C66.7642 65.6273 66.065 65.3329 65.5482 64.8153C65.0314 64.2977 64.7375 63.5973 64.7375 62.8666V56.6753C64.7375 55.2848 65.761 54.1176 67.1392 53.9349C71.8714 53.3158 81.9643 52.0065 81.9643 52.0065C81.9643 52.0065 83.8896 41.0043 84.1227 40.4968L92.8171 50.2607L93.5568 64.7239Z" fill="#F65570"/>
<path fill-rule="evenodd" clip-rule="evenodd" d="M86.4432 26.1758C85.5718 26.1758 84.7408 26.5412 84.143 27.1806C83.5451 27.82 83.2512 28.6726 83.312 29.5455C83.8592 36.9547 85.1056 53.9857 85.1056 53.9857C85.1056 53.9857 74.7696 55.3254 70.1082 55.9344C68.8314 56.0968 67.8789 57.193 67.8789 58.482C67.8789 60.3698 67.8789 63.0696 67.8789 65.0386C67.8789 65.7186 68.1525 66.3682 68.6288 66.8554C69.105 67.3324 69.7637 67.6065 70.4426 67.6065C75.6512 67.6065 87.5681 67.6065 94.2358 67.6065C95.4721 67.6065 96.6577 67.099 97.519 66.1957C98.3702 65.2924 98.8262 64.0846 98.7654 62.8463C98.3398 54.2293 97.4582 36.2645 97.1035 29.1598C97.0225 27.4851 95.6443 26.1758 93.9723 26.1758H86.4432Z" fill="#FF3EB3"/>
<path fill-rule="evenodd" clip-rule="evenodd" d="M70.635 62.075C70.4425 61.2326 69.8649 60.5221 69.0745 60.177C68.0206 59.7101 66.4804 59.0301 65.1732 58.4516C63.5822 57.7513 61.7684 57.7614 60.1876 58.4719C57.6948 59.5985 54.2291 61.1717 54.2291 61.1717L52.4355 67.5964H68.4665C69.2873 67.5964 70.0777 67.2209 70.5945 66.5713C71.1113 65.9217 71.3038 65.0793 71.1316 64.2775C70.9492 63.5061 70.7668 62.7144 70.635 62.075Z" fill="#FFC5BC"/>
<path fill-rule="evenodd" clip-rule="evenodd" d="M30.6794 53.803C30.5274 53.5391 30.5274 53.2143 30.6794 52.9606C30.8314 52.6967 31.105 52.5343 31.409 52.5343C36.1008 52.5343 50.48 52.5343 50.48 52.5343L59.1643 67.6065H39.384C38.928 67.6065 38.5024 67.3629 38.2693 66.967C36.952 64.6732 32.4629 56.8885 30.6794 53.803Z" fill="#CCCCCC"/>
<path fill-rule="evenodd" clip-rule="evenodd" d="M42.5355 58.4008C41.4918 58.4008 41.1371 59.2533 41.735 60.2987C42.3329 61.3441 43.6705 62.1967 44.7244 62.1967C45.7681 62.1967 46.1228 61.3441 45.5249 60.2987C44.9169 59.2533 43.5793 58.4008 42.5355 58.4008Z" fill="white"/>
<path fill-rule="evenodd" clip-rule="evenodd" d="M50.6217 52.7779C50.5407 52.6358 50.3785 52.5444 50.2164 52.5444C50.1759 52.5444 50.1353 52.5444 50.0948 52.5444C49.9225 52.5444 49.7705 52.6358 49.6895 52.7779C49.6084 52.92 49.6084 53.1027 49.6895 53.2549C51.1791 55.8431 56.2964 64.724 57.6442 67.0482C57.8468 67.3933 58.2116 67.6064 58.617 67.6064H59.1743C59.1743 67.6064 51.7263 54.686 50.6217 52.7779Z" fill="white"/>
<path fill-rule="evenodd" clip-rule="evenodd" d="M57.9685 66.3986V66.4798C57.9685 67.099 58.4752 67.6064 59.0933 67.6064H72.4085C72.7429 67.6064 73.0165 67.3324 73.0165 66.9975C73.0165 66.6625 72.7429 66.3885 72.4085 66.3885H57.9685V66.3986Z" fill="white"/>
<path d="M63.6429 67.6064H14.4556V73.4932H63.6429V67.6064Z" fill="#DEAA28"/>
<path d="M96.3738 67.6064H63.6431V73.4932H96.3738V67.6064Z" fill="#FFCD50"/>
<path d="M130.991 144.488C130.991 144.488 131.026 144.488 130.991 144.488C131.026 144.488 131.026 144.488 131.026 144.488C131.026 144.488 131.062 144.488 131.062 144.453C131.132 144.418 131.273 144.348 131.449 144.278C131.801 144.103 132.295 143.789 132.858 143.369C133.422 142.95 134.056 142.426 134.69 141.761C135.007 141.447 135.324 141.062 135.606 140.678C135.888 140.293 136.17 139.874 136.416 139.454C136.663 139.035 136.91 138.581 137.086 138.126C137.192 137.916 137.262 137.672 137.368 137.427C137.473 137.182 137.509 136.973 137.579 136.728C137.65 136.483 137.72 136.274 137.755 136.029C137.826 135.819 137.861 135.574 137.896 135.365C137.967 134.91 138.002 134.491 138.072 134.106C138.072 133.722 138.107 133.337 138.107 133.023C138.107 132.708 138.107 132.429 138.072 132.184C138.037 131.729 138.037 131.45 138.037 131.45C138.037 131.45 138.143 131.695 138.284 132.149C138.389 132.359 138.46 132.638 138.53 132.953C138.636 133.267 138.706 133.652 138.812 134.036C138.883 134.456 138.988 134.875 139.023 135.365C139.059 135.609 139.094 135.854 139.094 136.099C139.094 136.343 139.129 136.623 139.129 136.868C139.129 137.147 139.129 137.427 139.094 137.672C139.094 137.951 139.059 138.231 139.023 138.511C138.953 139.07 138.847 139.664 138.706 140.223C138.565 140.783 138.389 141.377 138.178 141.901C137.967 142.46 137.72 142.985 137.473 143.474C136.945 144.488 136.381 145.362 135.818 146.096C135.254 146.83 134.725 147.389 134.338 147.809C134.127 148.018 133.986 148.158 133.845 148.263C133.81 148.298 133.774 148.298 133.774 148.333C133.739 148.368 133.704 148.368 133.704 148.403C133.669 148.438 133.669 148.438 133.669 148.438L130.991 144.488Z" fill="#D07422"/>
<path d="M124.474 127.605C114.61 126.976 116.582 135.994 116.582 135.994V153.716L129.089 153.821C135.465 153.821 136.733 151.758 136.733 147.354C136.698 141.412 134.338 128.234 124.474 127.605Z" fill="#754114"/>
<path d="M117.851 152.213C117.851 152.143 117.851 152.038 117.851 151.933V133.442C117.992 131.24 119.788 129.457 122.043 129.457C124.333 129.457 126.235 131.345 126.235 133.652V148.298C126.235 149.906 126.27 151.164 126.306 152.213H133.845V126.976C133.845 121.593 128.631 115.895 123.205 115.895H124.016C116.406 115.895 110.241 122.012 110.241 129.527V152.213H117.851Z" fill="#9C571A"/>
<path d="M116.9 153.926C117.463 153.926 117.886 153.366 117.745 152.842C117.217 151.129 115.631 149.906 113.764 149.906C111.897 149.906 110.312 151.129 109.783 152.842C109.607 153.401 110.03 153.926 110.629 153.926H116.9Z" fill="#D48B4D"/>
<path d="M133.598 153.926C134.021 153.926 134.303 153.541 134.232 153.157C133.81 151.304 132.154 149.906 130.181 149.906C128.208 149.906 126.552 151.304 126.13 153.157C126.059 153.541 126.341 153.926 126.764 153.926H133.598Z" fill="#D48B4D"/>
<path d="M128.103 119.67H122.114H116.125C112.249 119.67 109.079 116.524 109.079 112.679V100.096C109.079 96.2508 112.249 93.1049 116.125 93.1049H128.067C131.942 93.1049 135.113 96.2508 135.113 100.096V112.644C135.148 116.524 131.978 119.67 128.103 119.67Z" fill="#D48B4D"/>
<path d="M118.943 116.909L119.013 122.886C119.049 124.389 120.282 125.578 121.761 125.508H121.832C123.311 125.473 124.509 124.214 124.474 122.746L124.403 116.909H118.943Z" fill="#F3A5AE"/>
<path d="M127.01 104.115C127.01 105.024 127.468 105.793 128.067 105.793C128.631 105.793 129.124 105.059 129.124 104.115C129.124 103.207 128.666 102.438 128.067 102.438C127.503 102.438 127.01 103.172 127.01 104.115Z" fill="#11201C"/>
<path d="M115.103 104.36C115.103 105.269 115.561 106.038 116.16 106.038C116.723 106.038 117.217 105.304 117.217 104.36C117.217 103.451 116.759 102.682 116.16 102.682C115.561 102.717 115.103 103.451 115.103 104.36Z" fill="#11201C"/>
<path d="M113.87 93.4894C113.87 93.4894 112.813 93.2097 108.656 96.9498C104.499 100.69 102.738 103.836 102.244 108.345L102.033 110.302C101.751 112.819 103.301 115.161 105.732 115.895C107.634 116.454 109.713 115.895 111.087 114.427L111.968 113.483C113.306 112.05 113.764 109.953 113.095 108.1L111.968 104.884C111.087 102.403 111.087 99.7112 111.897 97.2295L113.87 93.4894Z" fill="#9C571A"/>
<path d="M129.617 112.19L126.799 108.939C125.143 107.052 124.262 106.038 124.262 103.556V93H120.387V103.591C120.387 106.073 119.401 107.087 117.78 108.974L114.997 112.225C114.363 112.959 114.046 113.868 114.046 114.812V116.874C114.046 119.076 115.772 120.859 117.992 120.859C119.436 120.859 120.704 119.915 121.444 118.866H123.135C123.84 119.915 125.178 120.859 126.623 120.859C128.842 120.859 130.639 119.076 130.639 116.874V114.812C130.604 113.833 130.251 112.924 129.617 112.19Z" fill="#FFE2D1"/>
<path d="M130.709 93.6292C130.709 93.6292 133.035 94.3633 136.381 97.3693C139.799 100.445 141.525 104.29 141.877 108.834L142.053 110.792C142.265 113.309 140.644 115.616 138.213 116.28C136.276 116.804 134.232 116.175 132.894 114.672L132.013 113.693C130.709 112.225 130.322 110.128 131.027 108.275L132.224 105.094C133.14 102.647 133.246 99.956 132.471 97.4392L130.709 93.6292Z" fill="#9C571A"/>
<path d="M122.149 109.848C122.149 109.848 122.29 109.848 122.325 109.848C122.36 109.848 122.149 109.848 122.501 109.848C124.615 109.883 126.447 111.211 125.178 113.413C122.783 117.503 120.704 115.441 119.225 113.413C117.71 111.386 119.683 109.883 122.149 109.848Z" fill="#11201C"/>
</svg>
