<svg width="20" height="20" viewBox="0 0 20 20" fill="none" xmlns="http://www.w3.org/2000/svg">
<path fill-rule="evenodd" clip-rule="evenodd" d="M10.4944 1.35678C12.4774 -0.626155 15.9092 -0.41068 18.1589 1.84015C20.4092 4.09046 20.6258 7.52226 18.6422 9.50577L13.2409 14.9065L9.50449 18.6435C7.52155 20.6259 4.08969 20.4105 1.83943 18.1608C-0.410253 15.9094 -0.626307 12.4781 1.35668 10.4945L5.09369 6.75817L10.4944 1.35678ZM2.80372 17.1965C4.51875 18.9109 7.09244 19.1282 8.54136 17.6792L12.2778 13.9429L6.05734 7.72245L2.32097 11.4588C0.872046 12.9084 1.08931 15.4815 2.80372 17.1965ZM11.2986 2.74747L7.99878 6.0473L9.41299 7.46152L14.127 2.74747C13.346 1.96642 12.0797 1.96642 11.2986 2.74747Z" fill="#FDA458"/>
</svg>
