<svg width="14" height="16" viewBox="0 0 14 16" fill="none" xmlns="http://www.w3.org/2000/svg">
<path fill-rule="evenodd" clip-rule="evenodd" d="M7.83963 15.2842C9.73312 13.9723 13.7419 10.7381 13.7419 6.87097C13.7419 3.07624 10.6657 0 6.87097 0C3.07624 0 0 3.07624 0 6.87097C0 10.7381 4.00881 13.9723 5.9023 15.2842C6.49104 15.6921 7.25089 15.6921 7.83963 15.2842ZM6.87097 9.04074C8.0693 9.04074 9.04074 8.0693 9.04074 6.87097C9.04074 5.67263 8.0693 4.70119 6.87097 4.70119C5.67263 4.70119 4.70119 5.67263 4.70119 6.87097C4.70119 8.0693 5.67263 9.04074 6.87097 9.04074Z" fill="#074574"/>
</svg>
