<svg width="423" height="722" viewBox="0 0 423 722" fill="none" xmlns="http://www.w3.org/2000/svg">
<path d="M442.418 147.568C421.125 148.084 372.731 152.833 349.502 167.7C320.465 186.283 323.95 211.06 340.597 237.387C357.245 263.713 363.052 274.553 386.281 301.653C409.51 328.754 417.254 354.306 395.96 420.508C374.667 486.711 393.637 540.911 418.028 577.691C437.54 607.114 446.806 606.727 449 602.855M442.418 655.12C415.318 647.765 359.955 618.496 355.309 560.269C349.502 487.485 360.529 409.803 307.689 373.276C243.844 329.141 177.254 327.205 128.438 301.653C77.4779 274.979 73.1091 194.523 135.407 167.7C199.534 140.089 254.214 148.418 319.401 140.089C369.72 133.659 408.736 125.888 442.418 107.692M428.868 2C411.575 27.8099 319.614 80.0492 179.929 82.527C5.32354 85.6242 -11.0084 237.387 10.3565 294.685C36.8778 365.811 88.1741 380.632 191.544 412.765C294.913 444.898 271.037 541.52 272.846 577.691C275.131 623.4 290.268 682.221 442.418 719M266.766 237.902C268.233 264.015 240.227 277.293 212.803 275.522C175.72 273.128 160.61 267.998 155.745 245.426C152.526 220.884 168.129 205.076 201.997 202.543C235.864 200.01 265.299 211.789 266.766 237.902Z" stroke="white" stroke-width="5"/>
</svg>
