<svg width="31" height="32" viewBox="0 0 31 32" fill="none" xmlns="http://www.w3.org/2000/svg">
<path fill-rule="evenodd" clip-rule="evenodd" d="M16 6H7.3H7.26105H7.26104C6.17397 5.99999 5.30329 5.99999 4.59952 6.05749C3.87685 6.11653 3.25129 6.24066 2.67545 6.53407C1.75345 7.00385 1.00385 7.75345 0.534069 8.67545C0.240661 9.25129 0.11653 9.87685 0.0574863 10.5995C-1.38506e-05 11.3033 -7.69085e-06 12.174 0 13.261V13.261V13.2611V13.3V23.8182V23.8571V23.8572C-7.69085e-06 24.9442 -1.38506e-05 25.8149 0.0574863 26.5187C0.11653 27.2413 0.240661 27.8669 0.534069 28.4427C1.00385 29.3647 1.75345 30.1143 2.67545 30.5841C3.25129 30.8775 3.87685 31.0017 4.59952 31.0607C5.30327 31.1182 6.17393 31.1182 7.26096 31.1182H7.26105H7.3H17.8182H17.8571H17.8572C18.9443 31.1182 19.8149 31.1182 20.5187 31.0607C21.2413 31.0017 21.8669 30.8775 22.4427 30.5841C23.3647 30.1143 24.1143 29.3647 24.5841 28.4427C24.8775 27.8669 25.0017 27.2413 25.0607 26.5187C25.1182 25.8149 25.1182 24.9443 25.1182 23.8572V23.8571V23.8182V15H23.3182V21.8154L20.3107 17.6998C19.5117 16.6065 17.88 16.6065 17.0811 17.6998L13.1144 23.1279C12.3515 24.1719 10.8132 24.2284 9.97575 23.2432L8.56067 21.5784C7.762 20.6388 6.31157 20.6388 5.51291 21.5784L1.82402 25.9182C1.80042 25.3698 1.8 24.6948 1.8 23.8182V13.3C1.8 12.165 1.8007 11.368 1.85151 10.7461C1.90146 10.1347 1.99531 9.77243 2.13788 9.49263C2.43509 8.90933 2.90933 8.43509 3.49263 8.13788C3.77243 7.99531 4.13475 7.90146 4.7461 7.85151C5.36796 7.8007 6.16504 7.8 7.3 7.8H16V6ZM7.65 16.7182C9.34451 16.7182 10.7182 15.3445 10.7182 13.65C10.7182 11.9555 9.34451 10.5818 7.65 10.5818C5.95549 10.5818 4.58182 11.9555 4.58182 13.65C4.58182 15.3445 5.95549 16.7182 7.65 16.7182Z" fill="#15C8BC"/>
<path d="M26.0526 3.05263C26.0526 1.91899 25.1336 1 24 1C22.8664 1 21.9474 1.91899 21.9474 3.05263V4.94737H20.0526C18.919 4.94737 18 5.86636 18 7C18 8.13364 18.919 9.05263 20.0526 9.05263H21.9474V10.9474C21.9474 12.081 22.8664 13 24 13C25.1336 13 26.0526 12.081 26.0526 10.9474V9.05263H27.9474C29.081 9.05263 30 8.13364 30 7C30 5.86636 29.081 4.94737 27.9474 4.94737H26.0526V3.05263Z" fill="#15C8BC" stroke="white" stroke-width="2" stroke-linecap="round" stroke-linejoin="round"/>
</svg>
