<svg width="15" height="12" viewBox="0 0 15 12" fill="none" xmlns="http://www.w3.org/2000/svg">
<path fill-rule="evenodd" clip-rule="evenodd" d="M2.3 1.55005C1.99921 1.55005 1.75 1.79926 1.75 2.10005V9.90005C1.75 10.2008 1.99921 10.45 2.3 10.45H12.7C13.0008 10.45 13.25 10.2008 13.25 9.90005V2.10005C13.25 1.79926 13.0008 1.55005 12.7 1.55005H2.3ZM0.25 2.10005C0.25 0.970835 1.17079 0.0500488 2.3 0.0500488H12.7C13.8292 0.0500488 14.75 0.970835 14.75 2.10005V9.90005C14.75 11.0293 13.8292 11.95 12.7 11.95H2.3C1.17079 11.95 0.25 11.0293 0.25 9.90005V2.10005Z" fill="#074574"/>
<path fill-rule="evenodd" clip-rule="evenodd" d="M0.38564 1.67007C0.623176 1.33073 1.09082 1.2482 1.43016 1.48574L7.50006 5.73467L13.57 1.48574C13.9093 1.2482 14.377 1.33073 14.6145 1.67007C14.852 2.0094 14.7695 2.47705 14.4302 2.71459L7.93016 7.26459C7.67192 7.44535 7.32821 7.44535 7.06997 7.26459L0.569968 2.71459C0.230631 2.47705 0.148105 2.0094 0.38564 1.67007Z" fill="#074574"/>
</svg>
