<svg width="601" height="681" viewBox="0 0 601 681" fill="none" xmlns="http://www.w3.org/2000/svg">
<circle cx="4.5" cy="4.5" r="4.5" fill="white"/>
<circle cx="4.5" cy="172.5" r="4.5" fill="white"/>
<circle cx="4.5" cy="340.5" r="4.5" fill="white"/>
<circle cx="4.5" cy="508.5" r="4.5" fill="white"/>
<circle cx="4.5" cy="676.5" r="4.5" fill="white"/>
<circle cx="152.5" cy="4.5" r="4.5" fill="white"/>
<circle cx="152.5" cy="172.5" r="4.5" fill="white"/>
<circle cx="152.5" cy="340.5" r="4.5" fill="white"/>
<circle cx="152.5" cy="508.5" r="4.5" fill="white"/>
<circle cx="152.5" cy="676.5" r="4.5" fill="white"/>
<circle cx="300.5" cy="4.5" r="4.5" fill="white"/>
<circle cx="300.5" cy="172.5" r="4.5" fill="white"/>
<circle cx="300.5" cy="340.5" r="4.5" fill="white"/>
<circle cx="300.5" cy="508.5" r="4.5" fill="white"/>
<circle cx="300.5" cy="676.5" r="4.5" fill="white"/>
<circle cx="448.5" cy="4.5" r="4.5" fill="white"/>
<circle cx="448.5" cy="172.5" r="4.5" fill="white"/>
<circle cx="448.5" cy="340.5" r="4.5" fill="white"/>
<circle cx="448.5" cy="508.5" r="4.5" fill="white"/>
<circle cx="448.5" cy="676.5" r="4.5" fill="white"/>
<circle cx="596.5" cy="4.5" r="4.5" fill="white"/>
<circle cx="596.5" cy="172.5" r="4.5" fill="white"/>
<circle cx="596.5" cy="340.5" r="4.5" fill="white"/>
<circle cx="596.5" cy="508.5" r="4.5" fill="white"/>
<circle cx="596.5" cy="676.5" r="4.5" fill="white"/>
</svg>
