<svg width="11" height="14" viewBox="0 0 11 14" fill="none" xmlns="http://www.w3.org/2000/svg">
<path fill-rule="evenodd" clip-rule="evenodd" d="M5.5 1.28784C3.15454 1.28784 1.25316 3.24181 1.25316 5.65217C1.25316 7.22322 1.9943 8.73745 2.93357 10.0149C3.86557 11.2825 4.94181 12.2478 5.5 12.7095C6.05819 12.2478 7.13443 11.2825 8.06643 10.0149C9.0057 8.73745 9.74684 7.22322 9.74684 5.65217C9.74684 3.24181 7.84546 1.28784 5.5 1.28784ZM0 5.65217C0 2.53056 2.46243 0 5.5 0C8.53757 0 11 2.53056 11 5.65217C11 7.62686 10.0787 9.41431 9.06627 10.7913C8.04734 12.1771 6.88358 13.2184 6.28418 13.714C5.82306 14.0953 5.17694 14.0953 4.71582 13.714C4.11642 13.2184 2.95267 12.1771 1.93373 10.7913C0.921285 9.41431 0 7.62686 0 5.65217Z" fill="#074574"/>
<path fill-rule="evenodd" clip-rule="evenodd" d="M5.5 4.14969C4.69255 4.14969 4.03798 4.82237 4.03798 5.65217C4.03798 6.48196 4.69255 7.15464 5.5 7.15464C6.30746 7.15464 6.96203 6.48196 6.96203 5.65217C6.96203 4.82237 6.30746 4.14969 5.5 4.14969ZM2.78481 5.65217C2.78481 4.11112 4.00044 2.86186 5.5 2.86186C6.99956 2.86186 8.21519 4.11112 8.21519 5.65217C8.21519 7.19321 6.99956 8.44248 5.5 8.44248C4.00044 8.44248 2.78481 7.19321 2.78481 5.65217Z" fill="#074574"/>
</svg>
