<svg width="15" height="16" viewBox="0 0 15 16" fill="none" xmlns="http://www.w3.org/2000/svg">
<path fill-rule="evenodd" clip-rule="evenodd" d="M3.40909 4.05634C3.40909 1.81608 5.24065 0 7.5 0C9.75935 0 11.5909 1.81608 11.5909 4.05634V5.63867C11.826 5.64301 12.0384 5.65123 12.2301 5.66675C12.6512 5.70087 13.0316 5.77364 13.3868 5.95311C13.9427 6.23398 14.3947 6.68215 14.678 7.23338C14.859 7.5856 14.9324 7.96275 14.9668 8.38033C15 8.78377 15 9.28018 15 9.88717V9.91549V11.7183V11.7466C15 12.3536 15 12.85 14.9668 13.2535C14.9324 13.6711 14.859 14.0482 14.678 14.4004C14.3947 14.9517 13.9427 15.3998 13.3868 15.6807C13.0316 15.8602 12.6512 15.9329 12.2301 15.9671C11.8232 16 11.3225 16 10.7104 16H10.6818H4.31818H4.28962C3.67746 16 3.17681 16 2.76994 15.9671C2.34879 15.9329 1.96843 15.8602 1.61321 15.6807C1.05728 15.3998 0.605289 14.9517 0.322027 14.4004C0.141034 14.0482 0.0676384 13.6711 0.0332294 13.2535C-1.33094e-05 12.85 -7.22236e-06 12.3536 2.21873e-07 11.7467V11.7466V11.7466V11.7183V9.91549V9.88717V9.88716V9.88715C-7.22236e-06 9.28017 -1.33094e-05 8.78377 0.0332294 8.38033C0.0676384 7.96275 0.141034 7.5856 0.322027 7.23338C0.605289 6.68215 1.05728 6.23398 1.61321 5.95311C1.96843 5.77364 2.34879 5.70087 2.76994 5.66675C2.96157 5.65123 3.174 5.64301 3.40909 5.63867V4.05634ZM10.2273 4.05634V5.6338H4.77273V4.05634C4.77273 2.56284 5.99377 1.35211 7.5 1.35211C9.00623 1.35211 10.2273 2.56284 10.2273 4.05634ZM2.88098 7.01437C2.54416 7.04166 2.36323 7.09169 2.23229 7.15785C1.93294 7.30909 1.68956 7.55041 1.53704 7.84723C1.47032 7.97706 1.41986 8.15647 1.39234 8.49044C1.36417 8.8323 1.36364 9.27329 1.36364 9.91549V11.7183C1.36364 12.3605 1.36417 12.8015 1.39234 13.1434C1.41986 13.4773 1.47032 13.6567 1.53704 13.7866C1.68956 14.0834 1.93294 14.3247 2.23229 14.476C2.36323 14.5421 2.54416 14.5921 2.88098 14.6194C3.22576 14.6474 3.67051 14.6479 4.31818 14.6479H10.6818C11.3295 14.6479 11.7742 14.6474 12.119 14.6194C12.4558 14.5921 12.6368 14.5421 12.7677 14.476C13.0671 14.3247 13.3104 14.0834 13.463 13.7866C13.5297 13.6567 13.5801 13.4773 13.6077 13.1434C13.6358 12.8015 13.6364 12.3605 13.6364 11.7183V9.91549C13.6364 9.27329 13.6358 8.8323 13.6077 8.49044C13.5801 8.15647 13.5297 7.97706 13.463 7.84723C13.3104 7.55041 13.0671 7.30909 12.7677 7.15785C12.6368 7.09169 12.4558 7.04166 12.119 7.01437C11.7742 6.98644 11.3295 6.98592 10.6818 6.98592H4.31818C3.67051 6.98592 3.22576 6.98644 2.88098 7.01437ZM8.25758 11.3671C8.71045 11.1073 9.01515 10.6218 9.01515 10.0657C9.01515 9.236 8.33679 8.56338 7.5 8.56338C6.6632 8.56338 5.98485 9.236 5.98485 10.0657C5.98485 10.6218 6.28954 11.1073 6.74242 11.3671V12.6948C6.74242 13.1097 7.0816 13.446 7.5 13.446C7.9184 13.446 8.25758 13.1097 8.25758 12.6948V11.3671Z" fill="#074574"/>
</svg>
