<svg width="22" height="24" viewBox="0 0 22 24" fill="none" xmlns="http://www.w3.org/2000/svg">
<path d="M2.44444 24H19.5556C20.2039 24 20.8256 23.7471 21.284 23.297C21.7425 22.8469 22 22.2365 22 21.5999V8.39964C22 8.08137 21.8712 7.77614 21.642 7.55109C21.4128 7.32604 21.1019 7.19961 20.7778 7.19961H17.1111V6.26719C17.1111 3.13632 14.7852 0.333054 11.6111 0.0294474C10.7615 -0.0534599 9.90365 0.0391687 9.0927 0.301374C8.28176 0.563579 7.5357 0.989553 6.90252 1.55189C6.26934 2.11423 5.76307 2.80048 5.41627 3.56649C5.06947 4.3325 4.88982 5.16131 4.88889 5.99959V7.19961H1.22222C0.898069 7.19961 0.587192 7.32604 0.357981 7.55109C0.128769 7.77614 0 8.08137 0 8.39964V21.5999C0 22.2365 0.257539 22.8469 0.715961 23.297C1.17438 23.7471 1.79614 24 2.44444 24ZM17.1111 9.59967V11.9997H14.6667V9.59967H17.1111ZM7.33333 5.99959C7.33333 4.01474 8.97844 2.3995 11 2.3995C13.0216 2.3995 14.6667 4.01474 14.6667 5.99959V7.19961H7.33333V5.99959ZM4.88889 9.59967H7.33333V11.9997H4.88889V9.59967Z" fill="white"/>
</svg>
