<svg width="33" height="36" viewBox="0 0 33 36" fill="none" xmlns="http://www.w3.org/2000/svg">
<path d="M13.2096 23.3744L13.0929 23.905C12.3067 24.1435 11.5888 24.577 10.9998 25.1819C10.081 26.1251 9.58455 27.3698 9.6019 28.6864C9.61496 29.6758 9.91702 30.6168 10.4665 31.4133L10.3174 31.5624C9.14821 32.7318 8.85142 34.5152 9.579 36.0001L11.4673 35.0749C11.1352 34.3971 11.2706 33.583 11.8043 33.0493L12.0017 32.852C12.7782 33.3162 13.6543 33.5488 14.5304 33.5488C15.8148 33.5488 17.0979 33.0515 18.0626 32.061H18.0625C18.9813 31.1177 19.4777 29.8731 19.4604 28.5564C19.4445 27.3466 18.9954 26.2098 18.1911 25.3204L18.9679 22.0344L13.2096 23.3744ZM16.5564 30.5937C16.0295 31.1347 15.3236 31.4381 14.5686 31.448C14.5558 31.4482 14.543 31.4483 14.5303 31.4483C13.7894 31.4482 13.0907 31.1644 12.5589 30.6466C12.018 30.1197 11.7146 29.4137 11.7046 28.6587C11.6947 27.9036 11.9793 27.19 12.5062 26.649C13.033 26.1081 13.739 25.8047 14.494 25.7948C14.5067 25.7946 14.5195 25.7945 14.5323 25.7945C15.2731 25.7945 15.9718 26.0784 16.5036 26.5964C17.0445 27.1232 17.3479 27.8291 17.3579 28.5841C17.3678 29.3391 17.0832 30.0528 16.5564 30.5937Z" fill="white"/>
<path d="M11 14.9652C11.9766 16.4806 12.3113 18.2962 11.9991 20.0182L28.0889 16.274L29.5755 15.8851C31.6551 15.3886 32.8887 12.3389 32.4026 10.2786L32.3368 10L11 14.9652Z" fill="white"/>
<path d="M16.6475 3.4666L14.5669 13.4552L19.2765 12.3592L19.4905 11.3531L17.2519 10.8769L17.5808 9.29803L19.8134 9.69265L20.1794 7.62191L18.0098 7.23839L18.2807 5.93758L20.3062 6.35812L20.7337 4.29925L18.71 3.87906C18.9704 2.67335 20.1595 1.89864 21.369 2.15056L21.7977 0.0919715C19.4474 -0.397814 17.1371 1.11642 16.6475 3.4666Z" fill="white"/>
<path d="M9.29704 23.5252C10.2157 22.5819 10.7122 21.3373 10.6948 20.0206C10.6774 18.704 10.1484 17.4729 9.20511 16.5542C8.27772 15.6509 7.0593 15.1559 5.76727 15.1559C5.74508 15.1559 5.72267 15.1561 5.70055 15.1564C4.38388 15.1738 3.15274 15.7028 2.23399 16.6462C0.337492 18.5934 0.378717 21.7206 2.32592 23.6173C3.28274 24.5491 4.52434 25.0131 5.76488 25.0131C7.04925 25.013 8.33236 24.5157 9.29704 23.5252ZM5.76453 22.9126C5.02367 22.9125 4.32488 22.6286 3.7931 22.1108C2.67644 21.0233 2.65284 19.2299 3.74043 18.1133C4.26722 17.5724 4.97325 17.269 5.72822 17.2591C5.74093 17.2588 5.75372 17.2588 5.7665 17.2588C6.50736 17.2588 7.20608 17.5427 7.73786 18.0607C8.27877 18.5875 8.58217 19.2934 8.59214 20.0484C8.60204 20.8034 8.3174 21.5171 7.7906 22.058H7.79053C7.26374 22.599 6.55778 22.9023 5.80281 22.9123C5.79002 22.9125 5.77724 22.9126 5.76453 22.9126Z" fill="white"/>
</svg>
