<svg width="20" height="20" viewBox="0 0 20 20" fill="none" xmlns="http://www.w3.org/2000/svg">
<path d="M1.8335 1.125H2.96183C3.44867 1.125 3.69208 1.125 3.88874 1.21405C4.06206 1.29254 4.20939 1.41885 4.31344 1.57815C4.43149 1.75888 4.46868 1.99944 4.54305 2.48056L4.84074 4.40626M4.84074 4.40626L5.53277 8.88284C5.69708 9.94567 5.77923 10.4771 6.04657 10.8587C6.28188 11.1945 6.61474 11.4499 7.00006 11.5903C7.43784 11.7498 7.97241 11.6916 9.04155 11.5752L16.2262 10.793C17.0803 10.7 17.5073 10.6535 17.841 10.4796C18.2705 10.2559 18.6042 9.88387 18.7801 9.43271C18.9168 9.08219 18.9168 8.65261 18.9168 7.79345V7.79345C18.9168 6.87345 18.9168 6.41345 18.7659 6.04728C18.5716 5.57601 18.2047 5.19671 17.7402 4.98686C17.3792 4.82381 16.9195 4.8085 16 4.77788L4.84074 4.40626Z" stroke="#FF3EB3" stroke-width="1.8" stroke-linecap="round" stroke-linejoin="round"/>
<ellipse cx="8.08317" cy="16.5933" rx="1.66666" ry="1.875" stroke="#FF3EB3" stroke-width="1.8"/>
<ellipse cx="16.0002" cy="16.5933" rx="1.66667" ry="1.875" stroke="#FF3EB3" stroke-width="1.8"/>
</svg>
