<svg width="16" height="14" viewBox="0 0 16 14" fill="none" xmlns="http://www.w3.org/2000/svg">
<path fill-rule="evenodd" clip-rule="evenodd" d="M14.5111 0.904785H1.48889C0.666597 0.904785 0 1.57138 0 2.39367C0 2.89149 0.248794 3.35636 0.663 3.6325L1.80912 4.39658L6.3359 7.41443C7.3436 8.08623 8.6564 8.08623 9.6641 7.41443L14.1908 4.39664L15.337 3.6325C15.7512 3.35636 16 2.89149 16 2.39367C16 1.57138 15.3334 0.904785 14.5111 0.904785ZM0.380859 6.95239C0.380859 6.80539 0.391433 6.66085 0.411862 6.5195C0.495421 5.94134 1.17277 5.77512 1.65882 6.09916L5.50385 8.66251C7.0154 9.67021 8.9846 9.67021 10.4962 8.66251L14.341 6.09927C14.8271 5.77522 15.5044 5.94147 15.588 6.51964C15.6084 6.66094 15.619 6.80543 15.619 6.95239V11.0952C15.619 12.1998 14.7235 13.0953 13.619 13.0953H2.38086C1.27629 13.0953 0.380859 12.1998 0.380859 11.0952V6.95239Z" fill="#074574"/>
</svg>
