<svg width="14" height="14" viewBox="0 0 14 14" fill="none" xmlns="http://www.w3.org/2000/svg">
<path fill-rule="evenodd" clip-rule="evenodd" d="M7.00016 13.6666C10.6821 13.6666 13.6668 10.6819 13.6668 6.99998C13.6668 3.31808 10.6821 0.333313 7.00016 0.333313C3.31826 0.333313 0.333496 3.31808 0.333496 6.99998C0.333496 10.6819 3.31826 13.6666 7.00016 13.6666ZM7.60016 3.33331C7.60016 3.00194 7.33153 2.73331 7.00016 2.73331C6.66879 2.73331 6.40016 3.00194 6.40016 3.33331V6.99998C6.40016 7.15911 6.46338 7.31172 6.5759 7.42424L8.5759 9.42424C8.81021 9.65856 9.19011 9.65856 9.42443 9.42424C9.65874 9.18993 9.65874 8.81003 9.42443 8.57572L7.60016 6.75145V3.33331Z" fill="#074574"/>
</svg>
