<svg width="20" height="17" viewBox="0 0 20 17" fill="none" xmlns="http://www.w3.org/2000/svg">
<path d="M13.0371 9.41302C12.2272 8.14949 10.8477 7.39502 9.34704 7.39502C7.84648 7.39502 6.46691 8.14949 5.6571 9.41302L3.70542 12.4577C3.38161 12.9629 3.2322 13.5464 3.27326 14.145C3.31432 14.7437 3.54214 15.3013 3.93201 15.7576C4.32215 16.2138 4.83767 16.5255 5.42282 16.6593C6.00796 16.7929 6.6078 16.7359 7.15738 16.4944L7.19322 16.4784C8.57623 15.8823 10.157 15.8877 11.5366 16.4944C11.8924 16.6508 12.2693 16.7299 12.6497 16.7299C12.8565 16.7299 13.0646 16.7064 13.2707 16.6594C13.8559 16.5258 14.3714 16.2141 14.7617 15.7579C15.1517 15.3017 15.3796 14.744 15.4208 14.1453C15.462 13.5464 15.3126 12.9629 14.9888 12.4575L13.0371 9.41302ZM13.9598 15.0721C13.4634 15.6524 12.6603 15.8359 11.9613 15.5285C11.1305 15.1631 10.2387 14.9805 9.34663 14.9805C8.45538 14.9805 7.56373 15.163 6.73346 15.528L6.70984 15.5384C6.0162 15.8318 5.22493 15.646 4.73399 15.0721C4.23811 14.4916 4.18167 13.6698 4.59365 13.027L6.54546 9.98237C7.1604 9.02302 8.20765 8.45023 9.34704 8.45023C10.4864 8.45023 11.5338 9.02302 12.1489 9.98237L14.1004 13.0269C14.5125 13.67 14.456 14.4919 13.9598 15.0721Z" fill="#074574" stroke="#074574" stroke-width="0.2"/>
<path d="M4.2306 9.40906C4.81122 9.18604 5.25231 8.71817 5.47271 8.09155C5.68227 7.49528 5.66511 6.82211 5.4241 6.19591C5.18296 5.57011 4.74434 5.05926 4.18913 4.75728C3.60563 4.44019 2.96473 4.38856 2.38508 4.61199C1.21891 5.06036 0.683754 6.50146 1.19227 7.82514C1.59848 8.87871 2.54589 9.54378 3.50374 9.54378C3.74831 9.54378 3.99358 9.50038 4.2306 9.40906ZM2.1769 7.44612C1.87725 6.66611 2.1405 5.83639 2.7641 5.59661C2.87671 5.55322 2.99577 5.53166 3.1173 5.53166C3.30489 5.53166 3.49866 5.58288 3.68514 5.68437C4.02049 5.8666 4.28842 6.183 4.43947 6.57506C4.5904 6.9674 4.60385 7.38158 4.47724 7.74151C4.3612 8.07137 4.13914 8.31389 3.85213 8.42416L3.85158 8.42443C3.22881 8.66448 2.4775 8.22545 2.1769 7.44612Z" fill="#074574" stroke="#074574" stroke-width="0.2"/>
<path d="M8.01768 7.0237C9.47553 7.0237 10.6616 5.67242 10.6616 4.01146C10.6616 2.35009 9.47553 0.998535 8.01768 0.998535C6.55997 0.998535 5.37402 2.35009 5.37402 4.01146C5.37402 5.67242 6.55997 7.0237 8.01768 7.0237ZM8.01768 2.05361C8.89368 2.05361 9.60654 2.93194 9.60654 4.01146C9.60654 5.09057 8.89368 5.96863 8.01768 5.96863C7.14168 5.96863 6.4291 5.09057 6.4291 4.01146C6.4291 2.93194 7.14168 2.05361 8.01768 2.05361Z" fill="#074574" stroke="#074574" stroke-width="0.2"/>
<path d="M12.5838 7.76377H12.5839C12.8082 7.8382 13.037 7.87377 13.2648 7.87377C14.328 7.87377 15.3641 7.09994 15.7595 5.91069C15.9871 5.22613 15.9722 4.50228 15.7173 3.87264C15.4506 3.21362 14.9564 2.73517 14.3255 2.52534C13.6946 2.31578 13.012 2.40312 12.4038 2.77143C11.8227 3.12339 11.3775 3.69412 11.1503 4.37869C10.6703 5.82281 11.3134 7.34135 12.5838 7.76377ZM12.1515 4.71143C12.3 4.26443 12.5837 3.89613 12.9505 3.67393C13.2898 3.46836 13.66 3.41604 13.9928 3.52658C14.3254 3.63727 14.5904 3.90066 14.7393 4.26842C14.9001 4.66584 14.9069 5.13082 14.7582 5.57782C14.4617 6.46989 13.6356 7.00134 12.9167 6.76253C12.1983 6.52358 11.855 5.6035 12.1515 4.71143Z" fill="#074574" stroke="#074574" stroke-width="0.2"/>
<path d="M18.1518 7.41216L18.1514 7.41175C17.146 6.66909 15.6424 6.99098 14.7994 8.12968C13.9572 9.26893 14.0889 10.8005 15.0927 11.5437C15.4588 11.8149 15.8914 11.9446 16.3341 11.9446C17.1058 11.9446 17.9086 11.5507 18.4451 10.8265C19.2873 9.68723 19.1558 8.15564 18.1518 7.41216ZM17.5971 10.1988C17.0993 10.8707 16.2577 11.0936 15.7206 10.6957C15.1839 10.2985 15.1512 9.42864 15.6477 8.75712C15.9776 8.31136 16.4597 8.06336 16.9039 8.06336C17.1286 8.06336 17.3436 8.1268 17.5243 8.26042C18.0606 8.65811 18.0931 9.52766 17.5971 10.1988Z" fill="#074574" stroke="#074574" stroke-width="0.2"/>
</svg>
