<svg width="13" height="9" viewBox="0 0 13 9" fill="none" xmlns="http://www.w3.org/2000/svg">
<path fill-rule="evenodd" clip-rule="evenodd" d="M6.12931 7.44827C4.59983 7.44827 2.95206 6.5369 1.62896 4.47414C2.95206 2.41137 4.59983 1.5 6.12931 1.5C7.65879 1.5 9.30656 2.41137 10.6297 4.47414C9.30656 6.5369 7.65879 7.44827 6.12931 7.44827ZM12.1565 4.09623C10.6189 1.46046 8.44045 0 6.12931 0C3.81817 0 1.6397 1.46046 0.102166 4.09623C-0.0340553 4.32975 -0.0340553 4.61852 0.102166 4.85204C1.6397 7.48781 3.81817 8.94827 6.12931 8.94827C8.44045 8.94828 10.6189 7.48781 12.1565 4.85204C12.2927 4.61852 12.2927 4.32976 12.1565 4.09623ZM6.12931 6.9569C7.5005 6.9569 8.61207 5.84533 8.61207 4.47414C8.61207 3.10295 7.5005 1.99138 6.12931 1.99138C4.75812 1.99138 3.64655 3.10295 3.64655 4.47414C3.64655 5.84533 4.75812 6.9569 6.12931 6.9569Z" fill="#FF3EB3"/>
</svg>
