<svg width="18" height="18" viewBox="0 0 18 18" fill="none" xmlns="http://www.w3.org/2000/svg">
<g clip-path="url(#clip0)">
<path d="M15.253 4.79979H11.2306C11.6544 4.29195 11.91 3.63895 11.91 2.92731C11.91 1.31314 10.5969 0 8.98283 0C7.36867 0 6.05553 1.31314 6.05553 2.92731C6.05553 3.63895 6.3111 4.29195 6.73489 4.79979H2.71252L0.210938 18H17.7546L15.253 4.79979ZM8.98283 1.05469C10.0153 1.05469 10.8553 1.89473 10.8553 2.92731C10.8553 3.95975 10.0153 4.79979 8.98283 4.79979C7.95026 4.79979 7.11021 3.95975 7.11021 2.92731C7.11021 1.89473 7.95026 1.05469 8.98283 1.05469ZM3.58607 5.85448H14.3795L16.4813 16.9453H1.48425L3.58607 5.85448Z" fill="#074574" stroke="#074574" stroke-width="0.2"/>
<path d="M9.00439 9.302H7.8073L6.13367 10.9733V9.302H5.27344V13.5169H6.13367V12.0763L6.56749 11.6534L7.87857 13.5169H8.98901L7.18176 11.0623L9.00439 9.302Z" fill="#074574" stroke="#074574" stroke-width="0.2"/>
<path d="M10.706 12.0005H11.8427V12.4628C11.7513 12.5294 11.6269 12.5947 11.4716 12.6575C11.2826 12.734 11.0862 12.7727 10.8882 12.7727C10.6615 12.7727 10.4445 12.722 10.243 12.6221C10.0489 12.5258 9.90466 12.3819 9.80249 12.1819C9.69702 11.9758 9.6436 11.7114 9.6436 11.3963C9.6436 11.141 9.68892 10.9016 9.77777 10.6856C9.82803 10.5654 9.89958 10.4535 9.99049 10.3526C10.0771 10.2564 10.1951 10.1768 10.3408 10.1159C10.4893 10.054 10.6707 10.0226 10.8802 10.0226C11.0509 10.0226 11.2074 10.0521 11.3451 10.1103C11.4761 10.1656 11.5766 10.2383 11.6438 10.326C11.7166 10.4211 11.7796 10.5581 11.8313 10.7335L11.8796 10.8976L12.6716 10.6804L12.6289 10.5143C12.5562 10.2314 12.4469 9.99673 12.3038 9.81642C12.157 9.63144 11.9542 9.48615 11.7007 9.38452C11.4551 9.28606 11.1783 9.23621 10.8776 9.23621C10.4654 9.23621 10.0943 9.323 9.77475 9.49411C9.44763 9.66934 9.19385 9.94002 9.02095 10.2986C8.85272 10.6471 8.76758 11.027 8.76758 11.428C8.76758 11.8339 8.85382 12.2077 9.02425 12.5388C9.19852 12.8778 9.45985 13.1402 9.80125 13.319C10.1354 13.4941 10.5108 13.5829 10.9172 13.5829C11.2184 13.5829 11.5159 13.5282 11.8017 13.4199C12.0848 13.313 12.3623 13.1517 12.6267 12.9409L12.6924 12.8886V11.1953L10.706 11.1985V12.0005Z" fill="#074574" stroke="#074574" stroke-width="0.2"/>
</g>
<defs>
<clipPath id="clip0">
<rect width="18" height="18" fill="white"/>
</clipPath>
</defs>
</svg>
