<svg width="30" height="30" viewBox="0 0 30 30" fill="none" xmlns="http://www.w3.org/2000/svg">
<path fill-rule="evenodd" clip-rule="evenodd" d="M15.7428 2.03523C18.7173 -0.939172 23.865 -0.615959 27.2396 2.76029C30.615 6.13575 30.9399 11.2835 27.9646 14.2587L19.8625 22.3599L14.258 27.9653C11.2836 30.939 6.13576 30.6157 2.76037 27.2413C-0.614159 23.8641 -0.93824 18.7172 2.03625 15.7419L7.64176 10.1373L15.7428 2.03523ZM4.20679 25.7948C6.77935 28.3664 10.6399 28.6923 12.8133 26.5189L18.4179 20.9144L9.08724 11.5837L3.48267 17.1883C1.30929 19.3626 1.63518 23.2223 4.20679 25.7948ZM16.9497 4.1213L12 9.07104L14.1213 11.1924L21.1924 4.1213C20.0208 2.94972 18.1213 2.94972 16.9497 4.1213Z" fill="white"/>
</svg>
