<svg width="18" height="18" viewBox="0 0 18 18" fill="none" xmlns="http://www.w3.org/2000/svg">
<path fill-rule="evenodd" clip-rule="evenodd" d="M5.33333 2.25C5.33333 1.00736 6.378 0 7.66667 0H10.3333C11.622 0 12.6667 1.00736 12.6667 2.25V3.21429H17C17.5523 3.21429 18 3.64601 18 4.17857C18 4.71113 17.5523 5.14286 17 5.14286H15.9513L15.4588 14.6409C15.3612 16.5226 13.7505 18 11.7967 18H6.20333C4.24946 18 2.63881 16.5226 2.54124 14.6408L2.04875 5.14286H1C0.447715 5.14286 0 4.71113 0 4.17857C0 3.64601 0.447715 3.21429 1 3.21429H5.33333V2.25ZM7.33333 3.21429H10.6667V2.25C10.6667 2.07248 10.5174 1.92857 10.3333 1.92857H7.66667C7.48257 1.92857 7.33333 2.07248 7.33333 2.25V3.21429ZM7.66542 7.3447C7.63784 6.81281 7.16832 6.40318 6.61673 6.42977C6.06513 6.45637 5.64033 6.90912 5.66791 7.44101L6.00125 13.8696C6.02883 14.4015 6.49834 14.8111 7.04994 14.7845C7.60153 14.7579 8.02633 14.3052 7.99875 13.7733L7.66542 7.3447ZM12.3321 7.44101C12.3597 6.90912 11.9349 6.45637 11.3833 6.42977C10.8317 6.40318 10.3622 6.81281 10.3346 7.3447L10.0012 13.7733C9.97367 14.3052 10.3985 14.7579 10.9501 14.7845C11.5017 14.8111 11.9712 14.4015 11.9988 13.8696L12.3321 7.44101Z" fill="#EB5757"/>
</svg>
