<svg width="1137" height="855" viewBox="0 0 1137 855" fill="none" xmlns="http://www.w3.org/2000/svg">
<path d="M940.945 866.3C940.945 866.3 809.628 691.866 726.982 665.113C644.344 638.36 722.227 744.613 722.227 744.613C722.227 744.613 575.636 584.317 521.841 598.766C472.529 612.015 521.841 711.375 521.841 711.375C521.841 711.375 466.301 656.355 398.945 656.355C331.59 656.355 451.003 862.385 451.003 862.385L940.945 866.3Z" fill="#9BC1F9"/>
<path d="M521.841 862.377C521.841 862.377 432.071 622.317 320.903 650.079C230.812 672.574 294.862 793.364 289.37 787.873C283.879 782.381 235.559 700.4 157.381 700.4C79.2019 700.4 181.38 811.048 181.38 811.048C181.38 811.048 14.8081 759.03 1.76767 813.649C-9.05535 858.983 51.4799 862.377 51.4799 862.377H521.841Z" fill="#86B1F2"/>
<path d="M47.9319 780.676C87.7817 792.868 122.276 818.028 155.442 842.476C177.808 858.959 175.927 862.089 180.602 864.802C181.362 865.243 182.339 864.514 182.091 863.658C180.89 859.471 176.319 855.933 173.221 853.067C169.611 849.729 165.76 846.663 161.822 843.725C153.392 837.449 144.635 831.581 135.941 825.673C118.274 813.649 100.19 802.058 80.8572 792.868C70.2584 787.833 59.3073 783.566 48.0119 780.348C47.8118 780.292 47.7237 780.612 47.9319 780.676Z" fill="#074574"/>
<path d="M125.086 638.808C129.216 641.298 133.003 644.644 136.773 647.646C157.291 663.944 178.104 679.714 206.41 712.872C244.251 757.205 272.517 807.549 289.753 862.529C290.369 864.498 293.483 863.65 292.851 861.672C281.635 826.306 265.729 792.476 245.732 761.231C191.689 676.801 124.357 638.368 125.086 638.808Z" fill="#074574"/>
<path d="M227.256 648.975C231.779 678.754 247.317 705.539 258.028 733.333C286.679 807.685 291.386 864.306 293.963 870.582C294.22 871.215 295.044 871.103 295.124 870.422C295.837 864.594 289.52 823.824 277.072 781.412C256.371 710.903 234.709 683.357 228.233 648.71C228.113 648.062 227.16 648.342 227.256 648.975Z" fill="#074574"/>
<path d="M404.795 739.641C433.142 767.788 457.846 799.688 476.322 835.167C481.509 845.126 485.896 855.373 490.419 865.643C491.019 867.004 493.349 866.035 492.836 864.626C492.332 863.218 491.828 861.809 491.323 860.408C491.027 859.583 489.53 859.623 489.658 860.632C489.85 862.081 490.043 863.53 490.235 864.979C491.099 864.859 491.972 864.747 492.836 864.626C485.808 846.078 476.057 828.203 465.571 811.408C434.118 761.079 401.553 736.423 404.795 739.641Z" fill="#074574"/>
<path d="M159.132 640.329C158.356 641.874 155.169 646.061 154.737 651.056C153.897 655.851 155.818 661.463 155.914 661.239C156.21 661.319 151.151 658.085 148.909 652.169C146.284 646.557 146.484 638.264 148.405 635.262C151.535 628.65 158.347 627.105 160.077 629.874C161.902 632.62 160.637 636.847 159.132 640.329Z" fill="#074574"/>
<path d="M206.082 687.48C205.498 689.097 202.84 693.62 203 698.607C202.736 703.45 205.306 708.765 205.37 708.541C205.666 708.581 200.286 705.988 197.373 700.4C194.114 695.157 193.33 686.927 194.875 683.733C197.188 676.825 203.745 674.495 205.786 677.025C207.915 679.522 207.163 683.861 206.082 687.48Z" fill="#074574"/>
<path d="M265.857 710.694C264.656 711.111 260.822 711.663 258.012 714.065C255.098 716.154 253.209 720.093 253.377 720.021C253.489 720.213 252.504 715.906 254.378 711.639C255.899 707.34 260.277 703.082 262.839 702.497C267.898 700.64 272.269 703.346 271.749 705.691C271.293 708.077 268.443 709.646 265.857 710.694Z" fill="#074574"/>
<path d="M439.962 754.915C439.122 755.876 436.072 758.261 434.839 761.744C433.35 765.01 433.678 769.357 433.79 769.221C433.982 769.333 430.98 766.091 430.484 761.455C429.659 756.973 431.34 751.097 433.27 749.312C436.728 745.181 441.867 745.349 442.588 747.647C443.372 749.936 441.683 752.714 439.962 754.915Z" fill="#074574"/>
<path d="M420.726 734.318C419.885 735.278 416.835 737.664 415.602 741.146C414.113 744.412 414.441 748.759 414.554 748.623C414.746 748.735 411.744 745.493 411.247 740.858C410.423 736.375 412.104 730.491 414.025 728.714C417.483 724.584 422.623 724.752 423.343 727.049C424.128 729.339 422.439 732.116 420.726 734.318Z" fill="#074574"/>
<path d="M399.92 752.29C401.009 751.633 403.898 749.047 407.541 748.431C411.015 747.534 415.242 748.615 415.09 748.703C415.162 748.911 412.496 745.389 408.021 744.1C403.746 742.507 397.67 743.132 395.581 744.725C390.906 747.414 390.177 752.498 392.315 753.61C394.42 754.779 397.454 753.602 399.92 752.29Z" fill="#074574"/>
<path d="M420.333 774.64C421.422 773.984 424.304 771.398 427.954 770.782C431.428 769.885 435.655 770.966 435.503 771.054C435.575 771.262 432.909 767.74 428.434 766.443C424.16 764.85 418.084 765.482 415.994 767.067C411.319 769.749 410.591 774.84 412.728 775.953C414.842 777.13 417.868 775.953 420.333 774.64Z" fill="#074574"/>
<path d="M435.271 793.732C436.36 793.076 439.25 790.49 442.892 789.874C446.366 788.977 450.593 790.058 450.441 790.146C450.513 790.354 447.847 786.832 443.372 785.543C439.098 783.95 433.022 784.574 430.932 786.167C426.257 788.849 425.529 793.941 427.666 795.053C429.772 796.222 432.806 795.045 435.271 793.732Z" fill="#074574"/>
<path d="M447.703 812.825C448.792 812.168 451.674 809.583 455.324 808.966C458.798 808.07 463.025 809.15 462.873 809.238C462.945 809.447 460.279 805.924 455.804 804.627C451.53 803.034 445.454 803.667 443.364 805.252C438.689 807.942 437.961 813.025 440.098 814.138C442.203 815.314 445.237 814.138 447.703 812.825Z" fill="#074574"/>
<path d="M455.9 775.761C455.06 776.721 452.01 779.107 450.777 782.589C449.288 785.855 449.616 790.202 449.728 790.066C449.92 790.178 446.918 786.936 446.422 782.301C445.597 777.818 447.278 771.942 449.208 770.157C452.666 766.027 457.805 766.187 458.526 768.484C459.31 770.782 457.621 773.559 455.9 775.761Z" fill="#074574"/>
<path d="M470.038 796.742C469.197 797.703 466.147 800.089 464.914 803.571C463.425 806.837 463.753 811.184 463.866 811.048C464.058 811.16 461.056 807.918 460.559 803.283C459.735 798.8 461.416 792.924 463.337 791.139C466.795 787.008 471.935 787.176 472.655 789.474C473.44 791.755 471.751 794.541 470.038 796.742Z" fill="#074574"/>
<path d="M271.797 725.232C270.596 725.648 266.762 726.201 263.952 728.602C261.038 730.692 259.149 734.63 259.317 734.558C259.429 734.75 258.444 730.443 260.318 726.185C261.838 721.886 266.225 717.627 268.779 717.043C273.838 715.186 278.209 717.891 277.689 720.237C277.232 722.606 274.383 724.175 271.797 725.232Z" fill="#074574"/>
<path d="M87.0131 775.024C86.4288 776.641 83.771 781.164 83.9391 786.152C83.675 790.995 86.2446 796.31 86.3087 796.086C86.6049 796.126 81.2254 793.532 78.3115 787.945C75.0534 782.701 74.2689 774.472 75.8139 771.278C78.1274 764.37 84.6836 762.04 86.725 764.57C88.8383 767.075 88.0858 771.406 87.0131 775.024Z" fill="#074574"/>
<path d="M120.427 794.669C119.842 796.286 117.185 800.809 117.345 805.796C117.08 810.639 119.65 815.955 119.714 815.731C120.01 815.771 114.631 813.177 111.717 807.589C108.459 802.346 107.674 794.117 109.219 790.922C111.533 784.014 118.089 781.676 120.13 784.214C122.26 786.72 121.507 791.051 120.427 794.669Z" fill="#074574"/>
<path d="M153.776 817.828C153.192 819.445 150.534 823.968 150.694 828.955C150.43 833.798 153 839.114 153.064 838.89C153.36 838.93 147.981 836.336 145.067 830.748C141.809 825.505 141.024 817.276 142.569 814.082C144.883 807.173 151.439 804.844 153.48 807.373C155.609 809.871 154.857 814.21 153.776 817.828Z" fill="#074574"/>
<path d="M139.231 671.181C140.231 669.94 142.513 665.673 146.531 663.4C150.23 660.862 155.657 660.326 155.513 660.494C155.689 660.71 151.046 657.708 145.235 658.101C139.535 658.053 132.658 661.391 130.881 664.144C126.534 669.3 127.855 675.592 130.833 675.984C133.835 676.449 136.893 673.775 139.231 671.181Z" fill="#074574"/>
<path d="M167.978 697.718C168.978 696.477 171.26 692.211 175.278 689.937C178.977 687.399 184.404 686.863 184.26 687.031C184.436 687.247 179.793 684.245 173.981 684.638C168.282 684.59 161.405 687.928 159.628 690.682C155.281 695.829 156.602 702.129 159.58 702.521C162.574 702.986 165.632 700.304 167.978 697.718Z" fill="#074574"/>
<path d="M218.971 673.927C220.556 674.007 225.359 673.35 229.562 675.272C233.788 676.777 237.407 680.859 237.19 680.835C237.118 681.107 236.822 675.584 233.1 671.109C229.794 666.466 223.053 662.855 219.779 663.04C213.063 662.543 208.732 667.306 210.165 669.956C211.542 672.646 215.504 673.55 218.971 673.927Z" fill="#074574"/>
<path d="M227.392 694.292C228.977 694.372 233.78 693.716 237.983 695.637C242.21 697.142 245.828 701.224 245.612 701.2C245.54 701.473 245.244 695.957 241.521 691.474C238.215 686.831 231.475 683.221 228.201 683.405C221.484 682.909 217.153 687.672 218.586 690.321C219.955 693.019 223.926 693.916 227.392 694.292Z" fill="#074574"/>
<path d="M69.946 806.493C70.9467 805.252 73.2282 800.985 77.2468 798.712C80.9452 796.174 86.3727 795.638 86.2286 795.806C86.4047 796.022 81.7617 793.02 75.9499 793.412C70.2502 793.364 63.3738 796.702 61.5966 799.456C57.2498 804.611 58.5707 810.904 61.5486 811.296C64.5506 811.76 67.6085 809.086 69.946 806.493Z" fill="#074574"/>
<path d="M204.569 738.609C205.57 737.368 207.851 733.101 211.87 730.828C215.568 728.29 220.996 727.754 220.852 727.922C221.028 728.138 216.385 725.136 210.573 725.528C204.874 725.48 197.997 728.818 196.22 731.572C191.873 736.728 193.194 743.02 196.172 743.412C199.166 743.884 202.224 741.202 204.569 738.609Z" fill="#074574"/>
<path d="M104.737 826.778C105.737 825.537 108.019 821.27 112.045 818.997C115.744 816.459 121.171 815.923 121.027 816.091C121.203 816.307 116.56 813.305 110.749 813.697C105.049 813.649 98.1724 816.987 96.3952 819.741C92.0484 824.897 93.3693 831.189 96.3472 831.581C99.3411 832.045 102.399 829.364 104.737 826.778Z" fill="#074574"/>
<path d="M122.308 649.143C123.101 648.494 125.102 646.117 127.92 645.22C130.577 644.115 134.06 644.5 133.948 644.58C134.028 644.74 131.514 642.242 127.808 641.722C124.229 640.937 119.474 642.122 117.993 643.619C114.583 646.277 114.583 650.408 116.4 651.048C118.217 651.736 120.491 650.456 122.308 649.143Z" fill="#074574"/>
<path d="M129.937 632.428C129.897 633.444 129.192 636.478 130.177 639.272C130.889 642.058 133.291 644.612 133.291 644.468C133.467 644.436 129.961 643.923 127.319 641.282C124.541 638.896 122.628 634.381 122.94 632.3C123.02 627.977 126.311 625.487 127.92 626.56C129.561 627.601 129.905 630.186 129.937 632.428Z" fill="#074574"/>
<path d="M1087.07 656.099C1108.17 722.526 1117.78 792.612 1114.99 863.578H1117.66C1120.14 794.029 1110.68 724.103 1089.62 657.756C1084.72 642.338 1079.81 624.286 1065.42 614.92C1065.14 614.736 1064.9 615.169 1065.16 615.361C1078.11 624.647 1082.49 641.674 1087.07 656.099Z" fill="#074574"/>
<path d="M1105.61 863.578C1079.83 797.543 1044.19 733.333 997.435 673.278C996.971 672.678 995.907 673.486 996.371 674.095C1040.53 731.756 1076.19 795.429 1102.3 863.578H1105.61Z" fill="#074574"/>
<path d="M1093.18 620.052C1091.87 621.173 1087.33 623.798 1085.02 628.225C1082.41 632.316 1082.03 638.208 1082.2 638.039C1082.44 638.224 1079.03 633.316 1079.24 627.016C1078.98 620.852 1082.35 613.303 1085.26 611.278C1090.67 606.395 1097.52 607.596 1098.06 610.806C1098.69 614.024 1095.9 617.426 1093.18 620.052Z" fill="#074574"/>
<path d="M1070.93 668.323C1072.55 667.723 1077.04 665.017 1082.03 665.129C1086.87 664.817 1092.21 667.33 1091.98 667.402C1092.03 667.699 1089.38 662.343 1083.76 659.485C1078.49 656.283 1070.25 655.579 1067.07 657.156C1060.18 659.541 1057.92 666.114 1060.48 668.131C1063 670.236 1067.32 669.436 1070.93 668.323Z" fill="#074574"/>
<path d="M1078.09 694.02C1079.7 693.419 1084.2 690.714 1089.18 690.826C1094.03 690.513 1099.37 693.027 1099.14 693.099C1099.19 693.395 1096.53 688.04 1090.92 685.182C1085.64 681.98 1077.41 681.275 1074.23 682.852C1067.34 685.238 1065.08 691.81 1067.63 693.828C1070.15 695.925 1074.48 695.132 1078.09 694.02Z" fill="#074574"/>
<path d="M1017.55 732.933C1019.16 732.333 1023.65 729.627 1028.65 729.739C1033.49 729.427 1038.83 731.94 1038.61 732.012C1038.65 732.309 1036 726.953 1030.38 724.095C1025.11 720.893 1016.87 720.189 1013.69 721.766C1006.8 724.151 1004.54 730.724 1007.1 732.741C1009.61 734.838 1013.94 734.046 1017.55 732.933Z" fill="#074574"/>
<path d="M999.309 705.491C1000.93 704.891 1005.42 702.185 1010.41 702.297C1015.25 701.985 1020.59 704.499 1020.37 704.571C1020.42 704.867 1017.76 699.511 1012.15 696.654C1006.87 693.451 998.636 692.747 995.458 694.324C988.566 696.71 986.308 703.282 988.862 705.299C991.376 707.396 995.698 706.596 999.309 705.491Z" fill="#074574"/>
<path d="M1104.79 650.063C1103.33 650.968 1098.44 652.841 1095.45 656.852C1092.23 660.478 1090.92 666.234 1091.12 666.098C1091.33 666.314 1088.73 660.934 1089.94 654.746C1090.65 648.622 1095.16 641.69 1098.37 640.161C1104.48 636.198 1111.06 638.456 1111.08 641.714C1111.17 644.98 1107.88 647.902 1104.79 650.063Z" fill="#074574"/>
<path d="M1117.32 680.379C1115.47 680.803 1109.39 680.843 1105.4 684.317C1101.17 687.223 1099.02 693.571 1099.28 693.499C1099.51 693.86 1096.91 686.191 1098.96 679.282C1100.42 672.222 1106.54 665.921 1110.54 665.521C1118.3 663.52 1126.01 669.228 1125.71 673.158C1125.51 677.153 1121.26 679.178 1117.32 680.379Z" fill="#074574"/>
<path d="M1127.39 723.919C1125.49 724.023 1119.49 723.046 1114.98 725.8C1110.31 727.954 1107.13 733.846 1107.39 733.821C1107.56 734.214 1106.29 726.217 1109.48 719.756C1112.1 713.04 1119.19 707.861 1123.21 708.141C1131.2 707.468 1137.84 714.393 1136.89 718.219C1136.01 722.11 1131.47 723.399 1127.39 723.919Z" fill="#074574"/>
<path d="M1060.25 734.366C1058.77 734.814 1053.82 735.198 1050.77 738.248C1047.49 740.858 1046.12 746.134 1046.32 746.061C1046.52 746.342 1043.97 740.25 1045.25 734.518C1046.04 728.69 1050.65 723.215 1053.89 722.67C1060.08 720.597 1066.68 724.8 1066.66 728.018C1066.74 731.268 1063.39 733.165 1060.25 734.366Z" fill="#074574"/>
<path d="M1057.41 620.02C1058.34 619.595 1060.88 617.802 1063.84 617.65C1066.69 617.258 1069.96 618.507 1069.83 618.555C1069.87 618.731 1068.07 615.673 1064.62 614.232C1061.36 612.567 1056.45 612.511 1054.64 613.584C1050.67 615.297 1049.62 619.283 1051.22 620.364C1052.81 621.493 1055.33 620.836 1057.41 620.02Z" fill="#074574"/>
<path d="M1069.03 605.779C1068.74 606.755 1067.29 609.509 1067.53 612.463C1067.51 615.337 1069.19 618.419 1069.23 618.283C1069.4 618.299 1066.14 616.914 1064.26 613.688C1062.17 610.678 1061.47 605.827 1062.29 603.889C1063.46 599.727 1067.28 598.158 1068.56 599.599C1069.88 601.015 1069.56 603.609 1069.03 605.779Z" fill="#074574"/>
<path d="M987.853 679.442C988.782 679.018 991.32 677.225 994.281 677.073C997.131 676.68 1000.41 677.929 1000.27 677.977C1000.31 678.153 998.508 675.095 995.058 673.654C991.8 671.989 986.893 671.933 985.083 673.006C981.113 674.719 980.064 678.706 981.665 679.787C983.242 680.923 985.764 680.259 987.853 679.442Z" fill="#074574"/>
<path d="M1001.01 665.465C1000.64 666.41 998.973 669.035 998.973 672.005C998.724 674.871 1000.14 678.073 1000.18 677.945C1000.36 677.977 997.219 676.328 995.602 672.958C993.777 669.788 993.465 664.889 994.45 663.032C995.955 658.981 999.885 657.724 1001.05 659.269C1002.25 660.79 1001.72 663.344 1001.01 665.465Z" fill="#074574"/>
<path d="M418.228 830.836C419.861 831.853 424.023 835.335 426.145 837.497C431.981 843.421 437.272 851.85 440.154 861.368C440.338 861.977 440.394 862.529 440.954 862.881C441.09 862.969 441.291 862.913 441.371 862.769C441.715 862.129 441.427 861.544 441.243 860.88C439.882 856.101 437.096 850.105 432.901 844.277C425.801 834.407 420.533 832.125 418.26 830.78C418.228 830.764 418.196 830.812 418.228 830.836Z" fill="#074574"/>
<path d="M412.456 836.72C413.385 836.296 415.922 834.503 418.884 834.351C421.734 833.959 425.008 835.207 424.872 835.255C424.912 835.431 423.111 832.373 419.661 830.933C416.403 829.267 411.495 829.211 409.686 830.284C405.716 831.997 404.667 835.984 406.268 837.065C407.845 838.201 410.367 837.537 412.456 836.72Z" fill="#074574"/>
<path d="M424.072 822.487C423.775 823.464 422.326 826.218 422.567 829.171C422.551 832.045 424.224 835.127 424.264 834.991C424.44 835.007 421.174 833.622 419.292 830.396C417.211 827.386 416.507 822.535 417.331 820.598C418.5 816.435 422.318 814.866 423.599 816.307C424.92 817.724 424.6 820.31 424.072 822.487Z" fill="#074574"/>
<path d="M44.1212 787.512C44.9137 786.864 46.915 784.486 49.7329 783.59C52.3906 782.485 55.8728 782.869 55.7608 782.949C55.8408 783.11 53.3272 780.612 49.6208 780.084C46.0505 779.299 41.2874 780.484 39.8064 781.981C36.3962 784.639 36.3882 788.769 38.2134 789.41C40.0386 790.106 42.312 788.825 44.1212 787.512Z" fill="#074574"/>
<path d="M51.7581 770.798C51.7181 771.814 51.0137 774.848 51.9983 777.642C52.7108 780.428 55.1123 782.982 55.1123 782.838C55.2884 782.806 51.7822 782.293 49.1404 779.651C46.3626 777.266 44.4494 772.751 44.7616 770.67C44.8417 766.347 48.1318 763.865 49.7408 764.93C51.3739 765.971 51.7181 768.556 51.7581 770.798Z" fill="#074574"/>
<path d="M221.829 379.178L228.26 378.626L230.498 372.432L237.758 372.325L238.11 364.989L246.312 364.506L247.47 357.791L255.281 356.036L255.955 358.995L250.114 360.306L248.896 367.388L241.008 367.856L240.655 375.314L232.645 375.437L230.46 381.478L224.489 381.991L223.891 386.261L220.886 385.832L221.829 379.178Z" fill="#50BFA5"/>
<path d="M248.488 164.92L231.839 153.046L221.544 164.146L204.711 153L193.12 162.214L179.407 155.468L177 161.102L195.343 170.117L206.328 161.394L223.844 172.984L233.97 162.068L249.055 172.823L248.488 164.92Z" fill="#FFCD50"/>
<path d="M208.207 269.876C208.207 269.876 210.216 264.211 216.938 262.188C222.933 260.386 228.498 263.905 230.169 269.455C232.1 275.878 228.751 285.176 216.118 296.184C199.507 293.976 191.589 288.066 189.649 281.643C187.978 276.093 190.676 270.083 196.678 268.282C203.409 266.258 208.207 269.876 208.207 269.876Z" fill="#F48C7F"/>
<path d="M159.394 287.33C165.503 286.526 170.378 285.567 175.116 284.395C176.679 284.011 179.508 283.804 180.259 282.195C180.65 281.359 180.527 280.485 179.723 279.933C178.251 278.914 176.02 280.01 174.449 280.393C169.642 281.574 164.154 282.685 158.535 283.482C157.485 283.636 156.826 284.854 157.04 285.828C157.293 286.947 158.336 287.468 159.394 287.33Z" fill="#F48C7F"/>
<path d="M242.61 279.979C244.917 279.45 247.217 278.883 249.516 278.324C251.716 277.787 254.407 277.534 256.308 276.277C257.711 275.349 257.35 273.272 255.595 273.088C253.318 272.85 250.85 273.855 248.642 274.406C246.343 274.974 244.043 275.541 241.759 276.139C239.314 276.783 240.134 280.539 242.61 279.979Z" fill="#F48C7F"/>
<path d="M187.94 312.258C189.649 306.716 192.8 304.371 195.03 301.856C196.226 300.515 194.915 298.583 193.221 299.288C188.584 301.22 185.548 306.532 184.184 311.124C183.471 313.539 187.196 314.681 187.94 312.258Z" fill="#F48C7F"/>
<path d="M217.398 317.962C216.731 315.608 216.532 313.201 216.869 310.771C217.076 309.284 218.901 304.838 216.026 304.785C213.32 304.731 212.968 309.246 212.784 311.162C212.546 313.73 212.814 316.352 213.542 318.828C214.248 321.25 218.088 320.422 217.398 317.962Z" fill="#F48C7F"/>
<path d="M233.388 298.767C234.891 299.388 236.393 300.001 237.895 300.622C239.398 301.243 240.946 302.293 242.548 301.542C243.445 301.121 243.591 300.078 243.277 299.25C242.702 297.748 240.44 297.318 239.068 296.767C237.566 296.161 236.056 295.548 234.553 294.935C233.549 294.528 232.353 295.302 232.062 296.268C231.717 297.387 232.384 298.353 233.388 298.767Z" fill="#F48C7F"/>
<path d="M188.975 259.605C181.248 249.034 181.332 248.95 180.113 248.221C178.864 247.478 177.177 248.597 177.522 250.061C177.867 251.51 177.837 251.264 186.008 262.356C186.66 263.238 188.131 263.146 188.867 262.464C189.749 261.651 189.626 260.494 188.975 259.605Z" fill="#F48C7F"/>
<path d="M209.924 254.407C210.216 252.269 210.277 250.122 210.108 247.976C209.955 245.975 209.986 242.894 207.87 241.982C207.418 241.79 206.697 241.966 206.375 242.327C205.011 243.829 205.984 246.366 206.122 248.214C206.268 250.23 206.207 252.253 206.007 254.262C205.908 255.32 206.881 256.255 207.893 256.293C209.043 256.331 209.786 255.458 209.924 254.407Z" fill="#F48C7F"/>
<path d="M240.011 249.172C240.134 248.191 239.214 247.524 238.371 247.401C236.631 247.156 234.921 249.195 233.787 250.306C232.461 251.594 231.265 253.005 230.161 254.492C229.525 255.35 229.954 256.684 230.805 257.213C231.802 257.834 232.859 257.405 233.526 256.569C237.888 251.104 239.697 251.586 240.011 249.172Z" fill="#F48C7F"/>
<path d="M228.329 86.3577C227.241 94.943 236.179 101.75 244.128 101.213C252.912 100.623 260.371 93.4099 261.651 84.7786C263.038 75.4345 257.427 67.953 248.735 67.2708C240.28 66.6039 234.868 74.1313 237.305 81.7278C239.053 87.1779 244.028 89.2016 246.535 87.6992C248.489 86.5264 248.367 83.5752 246.006 83.0539C245.055 82.847 244.082 83.3759 243.576 84.0964C241.506 83.2762 239.536 79.5125 240.878 75.4421C242.587 70.245 249.149 69.9537 253.227 72.376C258.416 75.4575 259.236 82.1034 257.328 87.3926C255.327 92.95 249.869 97.327 243.936 97.7486C237.206 98.2239 231.288 93.065 230.752 86.3654C230.637 84.7787 228.529 84.817 228.329 86.3577Z" fill="#86B1F2"/>
<path d="M261.628 58.5473L261.551 48.5822L253.295 42.9941C252.353 42.3579 252.552 40.9167 253.633 40.5565L263.092 37.3983L265.851 27.8165C266.166 26.728 267.591 26.4674 268.266 27.3796L274.191 35.3976L284.156 35.0603C285.291 35.022 285.981 36.3022 285.314 37.2297L279.519 45.3397L282.915 54.7146C283.298 55.7801 282.294 56.8302 281.213 56.4853L271.708 53.4804L263.843 59.6051C262.946 60.3103 261.635 59.6818 261.628 58.5473Z" fill="#F47458"/>
<path d="M575.499 36.8744C574.986 29.4773 580.566 23.0613 587.963 22.5477C595.36 22.0341 601.776 27.6145 602.29 35.0117C602.803 42.4089 597.223 48.8248 589.826 49.3384C582.429 49.852 576.013 44.2716 575.499 36.8744Z" fill="#F7CC7F"/>
<path d="M598.266 74.7877C597.461 70.8937 596.978 66.7237 595.652 62.9676C594.51 59.7404 589.473 60.7216 589.726 64.1941C590.041 68.4407 591.367 72.741 592.256 76.9034C592.616 78.5898 594.847 79.3717 596.319 78.8504C598.12 78.2142 598.618 76.4818 598.266 74.7877Z" fill="#F7CC7F"/>
<path d="M621.277 58.1538C616.824 55.5322 612.945 52.282 608.844 49.1775C605.64 46.7553 602.175 50.9253 604.82 53.8075C608.606 57.9468 613.581 61.174 618.387 64.0102C619.905 64.907 622.021 64.0332 622.764 62.5307C623.585 60.8443 622.803 59.0506 621.277 58.1538Z" fill="#F7CC7F"/>
<path d="M612.853 34.1149C611.849 34.9198 611.642 36.0849 612.263 37.2118C613.765 39.9407 617.59 39.8027 620.304 39.7107C623.132 39.611 625.969 39.0361 628.644 38.1239C632.599 36.7748 630.453 30.6348 626.482 31.9916C618.717 34.6438 615.774 31.7693 612.853 34.1149Z" fill="#F7CC7F"/>
<path d="M608.576 8.00632C604.666 13.7247 601.478 15.6564 601.968 18.7993C602.259 20.639 603.716 21.5205 605.487 21.1142C607.587 20.639 608.729 18.416 609.986 16.8522C611.19 15.3575 612.378 13.8551 613.451 12.2606C614.432 10.8119 614.57 8.94151 613.137 7.69204C611.941 6.64954 609.565 6.55755 608.576 8.00632Z" fill="#F7CC7F"/>
<path d="M593.352 7.01758C592.103 3.5528 591.827 2.288 590.209 0.678257C588.799 -0.72452 585.825 0.172339 585.633 2.23434C585.403 4.6413 585.909 5.53049 587.22 9.17158C587.818 10.8196 589.703 11.7472 591.367 11.1569C593.015 10.5897 593.95 8.67332 593.352 7.01758Z" fill="#F7CC7F"/>
<path d="M576.902 15.4037C571.268 11.1264 570.126 9.91528 567.911 10.1529C566.615 10.2909 565.159 11.5327 565.442 12.9891C565.971 15.695 567.543 16.4309 572.724 20.21C574.112 21.2218 576.021 21.2755 577.216 19.8957C578.29 18.6616 578.282 16.4462 576.902 15.4037Z" fill="#F7CC7F"/>
<path d="M554.274 35.0194C552.051 36.1999 552.948 40.0326 555.347 40.3469C557.654 40.6458 558.543 40.2779 569.727 38.2389C571.452 37.9246 572.878 36.6598 572.747 34.7664C572.632 33.1643 571.015 31.4319 569.275 31.7462C557.669 33.8466 556.504 33.8389 554.274 35.0194Z" fill="#F7CC7F"/>
<path d="M571.797 53.3168C565.665 59.2498 564.768 58.1997 562.345 61.8254C561.242 63.4812 563.066 66.1257 564.99 65.7731C567.466 65.3209 568.125 64.8993 571.352 62.3467C573.223 60.8596 575.016 59.2728 576.741 57.6171C578.021 56.3906 577.676 54.0833 576.419 52.9948C574.993 51.753 573.077 52.0826 571.797 53.3168Z" fill="#F7CC7F"/>
<path d="M486.547 795.235C486.547 795.235 488.893 820.869 487.352 829.224C487.145 830.343 486.693 831.761 486.164 833.325C484.577 838.009 488.931 852.32 488.931 852.32L547.342 852.535C550.523 852.55 548.4 850.526 545.809 848.679C541.57 845.651 538.159 843.658 524.668 837.349C523.786 836.935 520.582 834.958 519.425 834.268C516.489 832.528 513.53 829.768 510.977 827.009C506.723 822.402 506.079 799.812 506.079 799.812L486.547 795.235Z" fill="#F7A491"/>
<path d="M519.409 834.268C504.009 838.415 492.565 835.87 486.141 833.379C484.554 838.054 481.557 853.876 483.343 853.876C497.992 853.876 510.387 856.651 552.355 855.984C553.858 855.961 553.674 850.802 552.693 849.66C549.994 846.517 520.567 834.95 519.409 834.268Z" fill="#FF3EB3"/>
<path d="M413.289 490.955C413.289 490.955 414.117 527.543 424.603 550.976C434.813 573.796 483.696 630.083 496.689 662.93C492.672 681.457 481.634 707.504 482.431 728.04C483.336 751.312 481.979 812.896 481.979 812.896L508.21 813.732L542.62 654.812L490.763 483.344L467.231 441.705L413.289 490.955Z" fill="#0D9A91"/>
<path d="M301.228 758.786C301.228 758.786 285.115 780.901 278.009 786.497C274.207 789.494 263.881 793.511 262.793 798.462C261.704 803.414 309.552 847.215 309.552 847.215C312.082 849.453 311.798 846.356 311.032 843.06C309.775 837.671 308.448 833.678 302.101 819.175C301.687 818.232 300.515 814.391 300.07 813.034C298.951 809.585 298.522 805.308 298.422 801.306C298.261 794.645 313.6 776.148 313.6 776.148L301.228 758.786Z" fill="#F7A491"/>
<path d="M300.078 813.019C284.87 805.522 277.518 795.45 274.138 788.957C269.585 791.579 257.335 797.167 258.416 798.731C266.879 811.011 275.663 826.28 309.637 855.21C310.855 856.245 315.838 850.273 315.861 848.679C315.899 844.271 300.515 814.384 300.078 813.019Z" fill="#FF3EB3"/>
<path d="M494.182 229.28C489.659 199.776 462.961 178.565 435.051 192.877C428.773 196.096 420.272 202.627 415.933 208.192C404.006 223.5 401.116 242.465 388.476 257.182C377.575 269.869 348.485 267.477 334.902 277.235C321.319 286.993 311.798 304.493 311.798 325.42C311.798 348.83 317.087 373.674 335.224 388.476C353.36 403.278 379.139 406.965 401.691 400.695C424.243 394.424 443.598 379.055 457.518 360.244C471.446 341.425 481.296 320.805 488.234 298.445C495.983 273.502 497.11 248.344 494.182 229.28Z" fill="#074574"/>
<path d="M392.04 269.294C392.04 269.294 357.768 208.131 349.436 195.13C341.096 182.13 319.38 130.465 318.605 128.426C317.831 126.387 333.561 101.942 330.05 101.098C326.539 100.255 322.653 113.992 318.904 112.351C315.156 110.711 304.21 77.665 302.079 79.3054C298.085 82.3716 307.981 99.8028 305.85 100.907C303.719 102.003 297.272 81.7277 293.087 82.3256C288.902 82.9235 301.044 100.914 299.871 102.501C298.698 104.088 286.104 87.1395 283.82 90.7499C282.585 92.7123 295.402 105.544 292.941 106.748C290.481 107.951 279.075 99.6649 277.863 102.056C276.652 104.448 288.411 107.714 291.93 114.16C295.448 120.599 301.435 123.382 303.918 135.309C306.402 147.237 310.12 190.393 322.86 211.925C335.6 233.458 363.602 281.114 363.602 281.114L392.04 269.294Z" fill="#F79C8D"/>
<path d="M596.984 510.303C593.212 507.045 585.133 499.909 585.869 499.173C586.819 498.215 590.346 498.897 591.465 499.326C592.584 499.748 593.925 500.139 595.044 500.568C596.164 500.989 597.398 500.514 598.026 499.165C598.655 497.816 594.569 495.148 592.975 494.512C588.008 492.519 573.658 489.874 572.148 489.53C570.362 489.123 549.926 464.218 542.245 456.246C530.057 442.816 518.214 428.405 516.926 426.972L483.551 356.856L453.096 359.087C453.096 359.087 489.039 437.42 491.285 441.13C492.35 442.893 523.005 471.83 523.012 471.822C539.002 485.122 553.122 496.796 555.774 499.119C555.774 499.119 561.83 508.187 565.348 514.189C567.602 518.037 570.73 521.104 573.014 523.212C579.338 517.501 587.371 515.768 594.83 511.752C595.589 511.299 596.294 510.817 596.984 510.303Z" fill="#F48C7F"/>
<path d="M468.948 302.592C468.948 302.592 492.496 313.838 504.101 383.854L464.187 394.984L447.576 349.85L468.948 302.592Z" fill="#FAE0B2"/>
<path d="M415.144 467.522C415.144 467.522 394.861 497.985 390.032 523.196C385.325 547.756 393.144 621.889 384.973 656.253C371.067 669.139 347.098 684.163 335.983 701.449C323.388 721.041 287 770.744 287 770.744L308.027 786.451L427.271 675.915L475.548 528.439L492.113 485.314L415.144 467.522Z" fill="#15C8BC"/>
<path d="M431.563 294.183C431.563 294.183 404.711 292.474 394.087 304.033C383.463 315.593 417.65 407.003 419.582 421.706C421.514 436.416 403.73 465.736 403.73 465.736C403.73 465.736 477.633 500.292 495.662 488.387C495.662 488.387 492.772 370.524 490.84 360.014C488.909 349.505 472.811 306.785 468.948 302.585C465.084 298.384 431.563 294.183 431.563 294.183Z" fill="#FFDD89"/>
<path d="M440.501 258.378C440.501 258.378 440.363 259.168 440.11 260.509C438.914 266.956 434.3 288.327 431.188 294.199C427.424 301.297 444.073 323.948 460.102 321.181C464.87 320.361 456.07 300.369 456.491 298.254C457.304 294.199 458.4 288.672 459.527 283.007C460.163 279.811 460.799 276.568 461.405 273.517C463.122 264.855 464.517 257.772 464.517 257.772L440.501 258.378Z" fill="#F7A491"/>
<path d="M440.11 260.509C440.363 259.167 440.501 258.378 440.501 258.378L464.517 257.78C464.517 257.78 463.122 264.863 461.405 273.525C460.807 276.553 460.171 279.78 459.534 282.961C455.824 282.417 451.953 280.615 448.067 277.227C443.835 273.525 441.053 269.079 439.382 264.334C439.681 262.816 439.926 261.505 440.11 260.509Z" fill="#F47458"/>
<path d="M456.66 203.9C456.66 203.9 445.338 202.597 438.248 211.749C431.149 220.909 423.507 249.226 441.13 264.625C458.753 280.025 476.169 262.594 478.752 244.113C481.335 225.639 482.339 203.233 456.66 203.9Z" fill="#F7A491"/>
<path d="M483.964 243.844C481.864 247.922 478.33 250.184 476.076 248.896C473.823 247.6 473.7 243.246 475.808 239.161C477.908 235.083 481.442 232.821 483.696 234.117C485.949 235.405 486.072 239.766 483.964 243.844Z" fill="#F7A491"/>
<path d="M457.925 200.872C457.925 200.872 442.801 227.801 431.985 229.05C421.169 230.292 419.743 244.603 419.743 244.603C419.743 244.603 423.614 211.626 434.323 205.272C445.039 198.909 457.925 200.872 457.925 200.872Z" fill="#184655"/>
<path d="M434.829 235.819C435.71 240.602 433.939 244.986 430.873 245.615C427.807 246.244 424.618 242.871 423.737 238.095C422.855 233.312 424.626 228.927 427.692 228.299C430.751 227.67 433.947 231.035 434.829 235.819Z" fill="#F7A491"/>
<path d="M382.558 249.471C382.558 249.471 420.464 290.151 426.098 306.548C431.732 322.944 420.602 346.393 405.232 347.42C389.863 348.447 355.66 275.219 355.66 275.219L382.558 249.471Z" fill="#FAE0B2"/>
<path d="M587.745 177.86L593.495 180.335C593.495 180.335 603.09 178.186 604.166 176.379C605.237 174.572 605.865 170 607.203 170C608.547 170 611.085 170.663 611.445 173.863C611.708 176.187 607.816 182.468 608.284 183.218C608.578 183.69 611.842 185.207 614.246 186.273C615.826 186.977 616.886 188.505 616.995 190.234V190.239C617.072 191.409 616.32 192.476 615.198 192.792L613.448 193.289L613.849 195.08C614.148 196.411 613.324 197.742 612.001 198.047L610.652 198.363L610.987 199.461C611.419 200.874 610.534 202.355 609.087 202.629L607.914 202.857L607.934 203.168C608.032 204.452 607.131 205.596 605.87 205.808L604.707 206L589.397 199.404C587.961 198.788 586.669 197.882 585.598 196.742L580.594 193.527C580.059 193.18 579.853 192.492 580.11 191.907L586.051 178.522C586.349 177.88 587.096 177.585 587.745 177.86Z" fill="#15C8BC"/>
<path d="M433.918 7.42318C462.198 12.6914 482.497 31.0399 479.263 48.4104C477.647 57.0985 470.451 63.893 460.124 67.8611L466.833 95.6099L446.388 71.2019C438.926 72.1345 430.685 71.9084 422.2 70.3313C393.92 65.0631 373.621 46.7146 376.855 29.3441C380.093 11.9679 405.638 2.15493 433.918 7.42318Z" fill="#FFCD50"/>
<path d="M446.868 45.5954C442.527 54.6339 431.685 58.4382 422.652 54.0969C413.619 49.7557 409.809 38.9083 414.151 29.8754C418.492 20.8368 429.334 17.0326 438.367 21.3738C447.399 25.7094 451.209 36.5568 446.868 45.5954Z" fill="#FBFBFB"/>
<path d="M420.516 36.1218C418.192 40.9548 420.233 46.7544 425.06 49.072C429.893 51.3952 435.687 49.3546 438.011 44.5273L420.516 36.1218Z" fill="#F1EEE6"/>
<path d="M673.952 98.7449L654.107 90.0523L649.599 103.75L643.03 101.589L649.921 80.6621L669.644 89.3088L674.681 73.0964L692.84 80.6621L700.299 64.718L706.561 67.6462L696.29 89.5924L679.027 82.4022L673.952 98.7449Z" fill="#86B1F2"/>
<path d="M773.851 605.504L771.161 615.293L787.58 620.475L788.124 616.397L773.851 605.504ZM774.618 614.526L776.151 610.111L785.786 617.209L774.618 614.526Z" fill="#D7DFED"/>
<path d="M828.843 571.861L823.516 547.852L791.558 567.691L809.841 582.416C809.841 582.416 815.597 567.445 828.843 571.861Z" fill="#F47458"/>
<path d="M620.749 661.201C620.749 661.201 583.848 677.69 543.022 698.103C502.195 718.516 492.384 716.554 486.489 710.667C480.602 704.779 480.211 691.626 480.211 691.626C480.211 691.626 470.591 705.561 475.497 723.422C480.403 741.282 494.538 741.482 494.538 741.482L504.748 735.395L498.071 747.369C498.071 747.369 512.498 754.927 525.943 741.482C539.388 728.036 542.232 719.497 542.232 719.497C542.232 719.497 536.935 740.301 531.631 745.606C531.631 745.606 546.548 752.282 555.378 740.309C564.209 728.335 568.134 713.028 568.134 713.028L564.799 741.098C564.799 741.098 578.536 735.802 586.002 714.009L582.077 734.621C582.077 734.621 595.936 715.411 601.57 694.002C607.204 672.592 618.979 670.239 618.979 670.239L620.749 661.201Z" fill="#B75742"/>
<path d="M691.118 733.149C691.118 733.149 692.459 778.26 662.089 794.787C654.707 798.804 642.795 813.453 645.148 821.524C647.379 829.19 665.546 844.919 665.546 844.919C665.546 844.919 678.179 845.831 683.882 860.035C684.786 862.289 680.685 861.73 680.685 861.73L648.506 861.76L620.749 814.825L622.635 785.405L640.695 739.604L675.243 734.107L691.118 733.149Z" fill="#B75742"/>
<path d="M842.947 704.825C842.947 704.825 884.188 766.801 893.194 780.246C899.472 789.628 899.472 801.395 899.472 801.395C899.472 801.395 897.717 820.244 893.984 823.977C893.401 824.56 892.443 824.981 891.247 825.28C881.796 827.626 873.372 818.711 876.047 809.344C877.289 805.013 878.27 801.042 878.27 799.425C878.27 795.109 876.307 794.711 876.307 794.711L830.767 768.456L815.85 724.84L842.947 704.825Z" fill="#B75742"/>
<path d="M813.044 718.524L805.586 777.486L809.12 844.544C809.12 844.544 823.646 848.077 827.961 855.536C832.277 862.994 831.495 864.175 831.495 864.175H796.947C796.947 864.175 768.685 796.949 768.685 789.49C768.685 782.032 761.226 740.424 761.226 734.928C761.226 729.432 765.94 704.795 782.421 702.825C798.909 700.855 813.044 718.524 813.044 718.524Z" fill="#F47458"/>
<path d="M860.915 562.417L852.016 550.374C852.016 550.374 822.703 542.004 810.139 554.56C806.123 558.576 801.616 564.402 799.837 572.083C798.91 576.092 798.741 584.24 798.81 591.507C798.894 599.648 797.239 605.037 793.996 612.373C788.209 621.188 764.315 639.669 754.787 641.984L761.495 641.11C761.495 641.11 748.624 647.933 738.008 649.749C696.729 656.234 634.509 657.415 620.657 661.378C604.169 666.092 594.158 714.768 598.673 739.305C603.188 763.842 569.613 754.007 561.511 769.859C553.861 784.83 583.281 853.696 583.281 853.696C583.281 853.696 590.892 862.964 592.264 864.343H625.502C625.502 864.343 624.452 842.88 607.833 837.384C591.214 831.888 593.568 796.428 593.568 796.428C593.568 796.428 641.07 802.974 664.626 772.09C682.763 748.312 681.038 741.911 679.283 740.225C687.975 745.054 748.686 777.916 779.255 772.09C812.232 765.812 822.703 745.92 822.703 745.92L820.48 760.316C820.48 760.316 842.664 752.267 840.502 734.207C840.502 734.207 843.837 736.56 843.837 741.666C843.837 741.666 853.457 729.301 853.457 690.047C853.457 668.146 852.675 612.656 852.675 612.656C852.675 612.656 892.106 605.428 897.234 600.299C900.714 596.819 905.268 571.408 905.268 571.408L860.915 562.417Z" fill="#F47458"/>
<path d="M791.558 567.691C791.558 567.691 799.523 584.938 807.763 587.559C816.003 590.173 823.516 547.852 823.516 547.852C823.516 547.852 811.949 543.406 802.068 553.295C798.166 557.197 791.558 567.691 791.558 567.691Z" fill="#B75742"/>
<path d="M816.839 728.68C806.997 740.094 816.027 729.623 809.273 737.473C807.878 723.621 812.248 706.343 815.85 692.645C809.718 699.23 801.539 712.33 797.683 717.91C804.636 705.914 802.888 682.749 801.516 669.143C801.478 669.189 793.49 678.64 790.209 682.55C789.565 676.379 788.508 662.735 790.616 656.755C792.77 650.623 799.048 643.433 803.723 638.956C798.48 643.31 791.98 650.041 789.435 656.311C785.94 664.935 788.462 686.344 788.531 687.885C800.205 674.654 792.241 683.661 799.554 675.329C800.32 686.804 801.447 710.651 796.119 720.156C802.405 716.186 808.338 707.593 811.949 701.031C802.52 725.377 808.629 739.65 808.645 740.025C808.599 740.087 809.151 739.366 816.609 729.692C817.015 731.187 817.866 734.376 817.951 735.932C817.958 735.357 817.199 730.459 816.839 728.68Z" fill="#B75742"/>
<path d="M791.129 610.111L785.786 621.318C785.786 621.318 790.876 659.254 853.196 655.031L855.243 638.964C855.235 638.956 798.419 636.986 791.129 610.111Z" fill="white"/>
<path d="M592.84 522.983L590.848 527.137L774.173 615.048L776.165 610.894L592.84 522.983Z" fill="#184655"/>
<path d="M629.993 510.565L624.774 505.194L594.954 494.323L561.236 510.565L600.486 550.279L603.328 540.633L578.672 516.177L598.26 503.344L601.174 505.041L611.349 510.965L629.993 510.565Z" fill="#FAE0B2"/>
<path d="M649.517 532.707C649.517 547.989 637.133 560.373 621.851 560.373C606.577 560.373 594.185 547.989 594.185 532.707C594.185 517.433 606.569 505.041 621.851 505.041C637.125 505.041 649.517 517.425 649.517 532.707Z" fill="#F7CC7F"/>
<path d="M635.908 532.355C635.908 540.784 629.072 547.621 620.642 547.621C612.213 547.621 605.376 540.784 605.376 532.355C605.376 523.926 612.213 517.089 620.642 517.089C629.08 517.089 635.908 523.926 635.908 532.355Z" fill="#FAE0B2"/>
<path d="M594.185 486.501C594.185 486.501 602.735 502.432 601.854 505.434C601.374 507.059 587.877 516.569 580.024 516.569C572.171 516.569 581.505 499.654 583.186 501.335C584.867 503.016 583.787 506.794 583.787 506.794C583.787 506.794 585.211 495.139 587.093 493.266C588.974 491.384 589.686 495.371 589.686 495.371C589.686 495.371 586.869 485.445 589.686 484.548C592.504 483.651 594.185 486.501 594.185 486.501Z" fill="#F79C8D"/>
</svg>
