<svg width="14" height="13" viewBox="0 0 14 13" fill="none" xmlns="http://www.w3.org/2000/svg">
<path d="M10.0335 9.0181L9.57766 9.65298C9.48668 9.7797 9.36636 9.88783 9.20778 9.92674C8.68836 10.0542 7.30938 10.1117 5.20992 8.16224C3.11045 6.21273 3.17242 4.93223 3.30967 4.44991C3.35157 4.30267 3.46801 4.19094 3.60448 4.10646L4.2882 3.6832C4.79724 3.36808 4.93479 2.72944 4.59543 2.25676L3.30412 0.458154C3.00791 0.045577 2.43688 -0.11205 1.94606 0.0832777L1.36355 0.315094C0.921034 0.491196 0.560066 0.807243 0.344759 1.2071C0.164879 1.54116 0.0254581 1.89295 0.006568 2.26603C-0.0529622 3.44177 0.224677 6.33842 3.69935 9.5649C7.17403 12.7914 10.2935 13.0492 11.5597 12.9939C11.9614 12.9764 12.3403 12.8469 12.7 12.6799C13.1307 12.4799 13.471 12.1448 13.6607 11.7339L13.9103 11.1929C14.1207 10.7372 13.9509 10.2069 13.5066 9.93189L11.5696 8.73281C11.0606 8.41769 10.3728 8.54542 10.0335 9.0181Z" fill="#074574"/>
</svg>
