<svg width="26" height="26" viewBox="0 0 26 26" fill="none" xmlns="http://www.w3.org/2000/svg">
<path d="M21.379 16.8086C20.1203 16.8086 18.9041 17.3375 18.0412 18.2599L4.59396 0.31209C4.41765 0.0710823 4.11789 -0.0449527 3.8263 0.0160355C3.53472 0.0763127 3.30412 0.300207 3.23714 0.59032C3.13451 1.03516 3.08779 1.48772 3.09775 1.93744C3.12167 3.01603 3.46495 4.07873 4.09702 4.9806L17.6328 23.9943C18.4905 25.2187 19.8905 26 21.379 26C23.8992 26 26 23.8991 26 21.3789C26 18.8587 23.8992 16.8086 21.379 16.8086ZM21.379 23.6641C20.1189 23.6641 19.0938 22.639 19.0938 21.3789C19.0938 20.1188 20.1189 19.0938 21.379 19.0938C22.639 19.0938 23.6641 20.1188 23.6641 21.3789C23.6641 22.639 22.6391 23.6641 21.379 23.6641Z" fill="white"/>
<path d="M22.1738 0.0160355C21.8822 -0.0449528 21.5824 0.0710824 21.4062 0.31209L13.9526 10.2828L16.1075 13.1507L21.903 4.98061C22.5352 4.07874 22.8785 3.01604 22.9023 1.93745C22.9123 1.48768 22.8656 1.03511 22.7629 0.590321C22.696 0.300207 22.4654 0.0762621 22.1738 0.0160355Z" fill="white"/>
<path d="M4.62109 26.001C6.10959 26.001 7.50953 25.2197 8.36723 23.9953L12.0642 18.816L9.86081 15.7296L7.95884 18.2608C7.09597 17.3385 5.87976 16.8096 4.62109 16.8096C3.5978 16.8096 2.61132 17.1596 1.84879 17.7297C1.64836 17.4685 1.52344 17.1516 1.52344 16.8096C1.52344 15.9697 2.25784 15.2861 3.09766 15.2861C3.51868 15.2861 3.85938 14.9454 3.85938 14.5244C3.85938 14.1034 3.51868 13.7627 3.09766 13.7627C1.41725 13.7627 0 15.1292 0 16.8096C0 17.5686 0.307125 18.265 0.792797 18.8126C0.293363 19.5451 0 20.4285 0 21.3799C0 23.9001 2.10092 26.001 4.62109 26.001ZM4.62109 19.0947C5.88118 19.0947 6.90625 20.1198 6.90625 21.3799C6.90625 22.64 5.88118 23.665 4.62109 23.665C3.36101 23.665 2.33594 22.64 2.33594 21.3799C2.33594 20.1198 3.36101 19.0947 4.62109 19.0947Z" fill="white"/>
</svg>
