<svg width="13" height="13" viewBox="0 0 13 13" fill="none" xmlns="http://www.w3.org/2000/svg">
<path d="M5.88225 1.11573C6.23041 0.312854 7.369 0.312853 7.71716 1.11573L8.47977 2.87439C8.76958 3.5427 9.39981 4.00059 10.125 4.06969L12.0332 4.25153C12.9044 4.33454 13.2562 5.41741 12.6002 5.99663L11.1633 7.26538C10.6173 7.74751 10.3765 8.4884 10.5349 9.19942L10.9516 11.0705C11.1419 11.9246 10.2208 12.5939 9.46717 12.149L7.81649 11.1745C7.18921 10.8041 6.4102 10.8041 5.78292 11.1745L4.13224 12.149C3.37865 12.5939 2.45751 11.9246 2.64777 11.0705L3.06451 9.19941C3.22288 8.4884 2.98215 7.74751 2.4361 7.26538L0.999178 5.99663C0.34318 5.41741 0.695027 4.33454 1.5662 4.25153L3.47445 4.06969C4.1996 4.00059 4.82983 3.5427 5.11964 2.87439L5.88225 1.11573Z" fill="#FF0000"/>
</svg>
