<svg width="14" height="14" viewBox="0 0 14 14" fill="none" xmlns="http://www.w3.org/2000/svg">
<path fill-rule="evenodd" clip-rule="evenodd" d="M7 1.27273C3.83691 1.27273 1.27273 3.83691 1.27273 7C1.27273 10.1631 3.83691 12.7273 7 12.7273C10.1631 12.7273 12.7273 10.1631 12.7273 7C12.7273 3.83691 10.1631 1.27273 7 1.27273ZM0 7C0 3.13401 3.13401 0 7 0C10.866 0 14 3.13401 14 7C14 10.866 10.866 14 7 14C3.13401 14 0 10.866 0 7Z" fill="#074574"/>
<path fill-rule="evenodd" clip-rule="evenodd" d="M0 7C0 6.64855 0.28491 6.36364 0.636364 6.36364H13.3636C13.7151 6.36364 14 6.64855 14 7C14 7.35145 13.7151 7.63636 13.3636 7.63636H0.636364C0.28491 7.63636 0 7.35145 0 7Z" fill="#074574"/>
<path fill-rule="evenodd" clip-rule="evenodd" d="M5.09106 6.99999C5.13467 8.95671 5.80762 10.8405 7 12.3768C8.19238 10.8405 8.86533 8.95671 8.90894 6.99999C8.86533 5.04327 8.19238 3.15944 7 1.62322C5.80762 3.15944 5.13467 5.04327 5.09106 6.99999ZM7 0.636354L6.53014 0.207176C4.83439 2.06366 3.87069 4.4729 3.81832 6.98674C3.81814 6.99557 3.81814 7.00441 3.81832 7.01324C3.87069 9.52708 4.83439 11.9363 6.53014 13.7928C6.65071 13.9248 6.82123 14 7 14C7.17877 14 7.34929 13.9248 7.46986 13.7928C9.16561 11.9363 10.1293 9.52708 10.1817 7.01324C10.1819 7.00441 10.1819 6.99557 10.1817 6.98674C10.1293 4.4729 9.16561 2.06366 7.46986 0.207176L7 0.636354Z" fill="#074574"/>
</svg>
