<svg width="20" height="16" viewBox="0 0 20 16" fill="none" xmlns="http://www.w3.org/2000/svg">
<path d="M8.75 0.5V1.75H18.75V4.25C18.7409 7.32453 17.1231 10.1699 14.4856 11.75H5.51437C2.87691 10.1699 1.25906 7.32453 1.25 4.25V1.75H2.5V0.5H0V4.25C0.00867188 7.55488 1.6452 10.6433 4.375 12.5062V15.5H15.625V12.5062C18.3548 10.6433 19.9913 7.55488 20 4.25V0.5H8.75ZM14.375 14.25H5.625V13H14.375V14.25Z" fill="#074574"/>
<path d="M13.1055 9.66568L13.7305 10.7494C14.1332 10.5177 14.5136 10.249 14.8667 9.94693L14.0542 8.99756C13.7595 9.24943 13.4419 9.47311 13.1055 9.66568Z" fill="#074574"/>
<path d="M17.4997 4.25V3.625H16.2497V4.25C16.2464 5.68473 15.7504 7.0748 14.8447 8.1875L15.8154 8.97625C16.9014 7.64016 17.496 5.9718 17.4997 4.25Z" fill="#074574"/>
<path d="M5 0.5H3.75V1.75H5V0.5Z" fill="#074574"/>
<path d="M7.5 0.5H6.25V1.75H7.5V0.5Z" fill="#074574"/>
</svg>
