<svg width="26" height="24" viewBox="0 0 26 24" fill="none" xmlns="http://www.w3.org/2000/svg">
<path d="M25.2778 3C25.6768 3 26 2.66438 26 2.25V0.75C26 0.335625 25.6768 0 25.2778 0H0.722222C0.323194 0 0 0.335625 0 0.75V2.25C0 2.66438 0.323194 3 0.722222 3H1.44354V21H0.722222C0.323194 21 0 21.3356 0 21.75V23.25C0 23.6644 0.323194 24 0.722222 24H11.5556V20.25C11.5556 19.8375 11.8806 19.5 12.2778 19.5H13.7222C14.1194 19.5 14.4444 19.8375 14.4444 20.25V24H25.2778C25.6768 24 26 23.6644 26 23.25V21.75C26 21.3356 25.6768 21 25.2778 21H24.5556V3H25.2778ZM11.5556 5.1C11.5556 4.8 11.8444 4.5 12.1333 4.5H13.8667C14.1556 4.5 14.4444 4.8 14.4444 5.1V6.9C14.4444 7.2 14.1556 7.5 13.8667 7.5H12.1333C11.8444 7.5 11.5556 7.2 11.5556 6.9V5.1ZM11.5556 9.6C11.5556 9.3 11.8444 9 12.1333 9H13.8667C14.1556 9 14.4444 9.3 14.4444 9.6V11.4C14.4444 11.7 14.1556 12 13.8667 12H12.1333C11.8444 12 11.5556 11.7 11.5556 11.4V9.6ZM5.77778 5.1C5.77778 4.8 6.06667 4.5 6.35556 4.5H8.08889C8.37778 4.5 8.66667 4.8 8.66667 5.1V6.9C8.66667 7.2 8.37778 7.5 8.08889 7.5H6.35556C6.06667 7.5 5.77778 7.2 5.77778 6.9V5.1ZM8.08889 12H6.35556C6.06667 12 5.77778 11.7 5.77778 11.4V9.6C5.77778 9.3 6.06667 9 6.35556 9H8.08889C8.37778 9 8.66667 9.3 8.66667 9.6V11.4C8.66667 11.7 8.37778 12 8.08889 12ZM8.66667 18C8.66667 15.5147 10.6067 13.5 13 13.5C15.3933 13.5 17.3333 15.5147 17.3333 18H8.66667ZM20.2222 11.4C20.2222 11.7 19.9333 12 19.6444 12H17.9111C17.6222 12 17.3333 11.7 17.3333 11.4V9.6C17.3333 9.3 17.6222 9 17.9111 9H19.6444C19.9333 9 20.2222 9.3 20.2222 9.6V11.4ZM20.2222 6.9C20.2222 7.2 19.9333 7.5 19.6444 7.5H17.9111C17.6222 7.5 17.3333 7.2 17.3333 6.9V5.1C17.3333 4.8 17.6222 4.5 17.9111 4.5H19.6444C19.9333 4.5 20.2222 4.8 20.2222 5.1V6.9Z" fill="white"/>
</svg>
