<svg width="35" height="35" viewBox="0 0 35 35" fill="none" xmlns="http://www.w3.org/2000/svg">
<circle cx="17.5" cy="17.5" r="17.5" fill="#2F80ED"/>
<path d="M13.53 24C13.47 24 13.416 23.982 13.368 23.946C13.332 23.898 13.314 23.844 13.314 23.784V11.616C13.314 11.556 13.332 11.508 13.368 11.472C13.416 11.424 13.47 11.4 13.53 11.4H15.186C15.246 11.4 15.294 11.424 15.33 11.472C15.378 11.508 15.402 11.556 15.402 11.616V16.998C15.402 17.034 15.414 17.058 15.438 17.07C15.462 17.082 15.486 17.076 15.51 17.052L20.19 11.526C20.262 11.442 20.352 11.4 20.46 11.4H22.332C22.452 11.4 22.512 11.442 22.512 11.526C22.512 11.562 22.494 11.61 22.458 11.67L18.336 16.728C18.3 16.776 18.294 16.818 18.318 16.854L22.746 23.748C22.77 23.82 22.782 23.862 22.782 23.874C22.782 23.958 22.722 24 22.602 24H20.712C20.604 24 20.52 23.952 20.46 23.856L16.896 18.312C16.848 18.24 16.806 18.234 16.77 18.294L15.438 19.842C15.414 19.89 15.402 19.932 15.402 19.968V23.784C15.402 23.844 15.378 23.898 15.33 23.946C15.294 23.982 15.246 24 15.186 24H13.53Z" fill="white"/>
</svg>
